<?xml version="1.0" encoding="utf-8"?>
<!-- Generator: Adobe Illustrator 27.9.0, SVG Export Plug-In . SVG Version: 6.00 Build 0)  -->
<svg version="1.1" id="Layer_2_00000026856903803721847400000000243263078526067639_"
	 xmlns="http://www.w3.org/2000/svg" xmlns:xlink="http://www.w3.org/1999/xlink" x="0px" y="0px" viewBox="0 0 821.6 225.7"
	 style="enable-background:new 0 0 821.6 225.7;" xml:space="preserve">
<style type="text/css">
	.st0{clip-path:url(#SVGID_00000168815572545181584140000011429168508629543614_);}
	.st1{fill:#231F20;}
	.st2{clip-path:url(#SVGID_00000060024650556592200970000001401520140265549751_);}
	.st3{clip-path:url(#SVGID_00000111150166044278660110000007246944941052682411_);fill:#E3201B;}
	.st4{clip-path:url(#SVGID_00000096777906022502812080000014272842585875088549_);}
	.st5{clip-path:url(#SVGID_00000121963066578562878900000017631696119963885493_);fill:#E3201B;}
</style>
<g id="Layer_1-2">
	<g>
		<defs>
			<path id="SVGID_1_" d="M785.4,135.4c-2.3,0-4.3-0.8-5.8-2.3s-2.3-3.5-2.3-5.8s0.8-4.4,2.3-5.9s3.5-2.3,5.8-2.3s4.4,0.8,5.9,2.3
				c1.5,1.5,2.3,3.5,2.3,5.9s-0.8,4.3-2.3,5.8C789.7,134.6,787.8,135.4,785.4,135.4z M819.5,182.2l-3,16.4h-55.6
				c-0.5,0-1-0.8-1.3-2.3s-0.5-3.5-0.5-6.1s0.2-4.4,0.5-5.9c0.3-1.5,0.8-2.2,1.3-2.2h41v-8.2c0-2.2-0.7-4.2-1.9-5.9
				c-1.3-1.7-3.2-3-5.6-4c-2.5-1-5.5-1.5-9-1.5c-2.6,0-5.2,0.3-7.8,0.9c-2.6,0.6-4.8,1.3-6.8,2.2l-6.1-13.6c3.1-2,6.4-3.4,9.9-4.4
				c3.5-1,7.1-1.5,10.8-1.5c4.1,0,8,0.6,11.7,1.9c3.7,1.3,6.9,3.1,9.8,5.4s5.1,5.3,6.7,8.7c1.6,3.4,2.4,7.4,2.4,11.7v8.2
				L819.5,182.2L819.5,182.2z M762.2,196.3c-0.3,1.5-0.8,2.3-1.3,2.3h-20.2c-0.5,0-1-0.8-1.3-2.3s-0.5-3.5-0.5-6.1s0.2-4.4,0.5-5.9
				c0.3-1.5,0.8-2.2,1.3-2.2h20.2c0.5,0,1,0.7,1.3,2.2s0.5,3.4,0.5,5.9S762.6,194.8,762.2,196.3z M722.9,140.5
				c-2.3,0-4.3-0.8-5.8-2.3s-2.3-3.5-2.3-5.8s0.8-4.4,2.3-5.9s3.5-2.3,5.8-2.3s4.4,0.8,5.9,2.3c1.5,1.5,2.3,3.5,2.3,5.9
				s-0.8,4.3-2.3,5.8C727.2,139.7,725.3,140.5,722.9,140.5z M742.1,196.3c-0.3,1.5-0.8,2.3-1.4,2.3H730v1.9c0,4.8-1,9-2.9,12.6
				s-4.7,6.4-8.2,8.4s-7.8,3.1-12.6,3.4l-2.7-15.7c3.1-0.1,5.6-0.4,7.3-1c1.8-0.6,3-1.6,3.7-2.8c0.7-1.3,1.1-2.9,1.1-4.8v-49.3H730
				v31h10.7c0.6,0,1.1,0.7,1.4,2.2s0.5,3.4,0.5,5.9S742.4,194.8,742.1,196.3L742.1,196.3z M689.6,151.2h14.1v47.4h-28.1
				c-0.5,0-1-0.8-1.3-2.3s-0.5-3.5-0.5-6.1s0.2-4.4,0.5-5.9c0.3-1.5,0.8-2.2,1.3-2.2h14L689.6,151.2L689.6,151.2z M702.6,138.2
				c-1.5,1.5-3.5,2.3-5.9,2.3s-4.3-0.8-5.8-2.3s-2.3-3.5-2.3-5.8s0.8-4.4,2.3-5.9s3.5-2.3,5.8-2.3s4.4,0.8,5.9,2.3
				c1.5,1.5,2.3,3.5,2.3,5.9S704.1,136.6,702.6,138.2z M677,196.3c-0.3,1.5-0.8,2.3-1.3,2.3h-20.2c-0.6,0-1-0.8-1.3-2.3
				s-0.5-3.5-0.5-6.1s0.2-4.4,0.5-5.9c0.3-1.5,0.8-2.2,1.3-2.2h20.2c0.6,0,1,0.7,1.3,2.2s0.5,3.4,0.5,5.9S677.3,194.8,677,196.3z
				 M610.5,135.5c-1.9,0-3.5-0.6-4.8-1.9s-1.9-2.9-1.9-4.8s0.6-3.6,1.9-4.8c1.3-1.2,2.8-1.8,4.8-1.8s3.6,0.6,4.8,1.8
				c1.2,1.2,1.8,2.8,1.8,4.8s-0.6,3.5-1.8,4.8S612.4,135.5,610.5,135.5z M625.7,135.5c-1.9,0-3.5-0.6-4.8-1.9s-1.9-2.9-1.9-4.8
				s0.6-3.6,1.9-4.8c1.3-1.2,2.8-1.8,4.8-1.8s3.5,0.6,4.8,1.8c1.3,1.2,1.9,2.8,1.9,4.8s-0.6,3.5-1.9,4.8S627.6,135.5,625.7,135.5z
				 M621.5,162.1c-2.8,0.6-5.3,1.4-7.3,2.4c-2.1,1-3.7,2.2-4.8,3.6c-1.1,1.4-1.7,3-1.7,4.8c0,1.6,0.5,3,1.5,4.1s2.4,2,4.3,2.5
				c1.9,0.6,4.2,0.8,6.8,0.8c2.2,0,4.3-0.2,6.2-0.6c1-0.2,2-0.5,2.9-0.8c-0.2-1.4-0.3-3-0.3-4.6v-13.3
				C626.3,161.3,623.8,161.7,621.5,162.1L621.5,162.1z M656.8,196.3c-0.3,1.5-0.8,2.3-1.3,2.3H652c-4.9,0-9.1-0.9-12.5-2.8
				c-1.8-1-3.3-2.2-4.6-3.6c-1.8,0.6-3.6,1.2-5.5,1.6c-3.1,0.7-6.1,1-9.2,1c-3.6,0-7.1-0.5-10.3-1.4c-3.3-0.9-6.1-2.3-8.6-4.1
				s-4.4-4.1-5.8-6.8c-1.4-2.7-2.1-5.9-2.1-9.6c0-4.1,0.9-7.8,2.8-10.9s4.5-5.8,7.8-8s7.2-3.8,11.7-5c4.1-1.1,8.6-1.8,13.4-2V144
				h14.2v30.5c0,2,0.2,3.5,0.7,4.7s1.3,1.9,2.6,2.4c1.3,0.4,3.1,0.6,5.5,0.6h3.4c0.5,0,1,0.7,1.3,2.2s0.5,3.4,0.5,5.9
				S657.1,194.9,656.8,196.3L656.8,196.3z M594.2,54.3c-3.1,0-5.5,0.5-7,1.6c-1.6,1.1-2.3,2.8-2.3,5.1s0.8,4.1,2.4,5.4
				c1.6,1.3,3.8,2,6.5,2c2.4,0,4.6-0.4,6.5-1.2c1.9-0.8,3.4-1.9,4.7-3.3c1.2-1.3,1.9-2.8,2.2-4.6v-5
				C607.1,54.3,594.2,54.3,594.2,54.3z M607.2,79.2l0-6.8c-1.4,1.8-3.1,3.3-5.2,4.5c-3.5,2-7.8,3-12.8,3c-4,0-7.5-0.8-10.5-2.3
				s-5.2-3.7-6.8-6.4c-1.6-2.7-2.4-5.8-2.4-9.2c0-5.3,1.9-9.5,5.7-12.6c3.8-3,9.2-4.6,16.2-4.7h15.8v-1.1c0-3.1-1-5.6-3-7.3
				c-2-1.8-5-2.7-8.9-2.7c-2.6,0-5.3,0.4-8.2,1.3c-2.9,0.9-5.9,2.2-8.8,3.8L573,28.2c2.8-1.5,5.6-2.7,8.3-3.7c2.7-1,5.5-1.8,8.3-2.3
				s5.9-0.8,9.3-0.8c7.7,0,13.7,1.8,17.9,5.4s6.3,8.6,6.4,15l0.1,37.4L607.2,79.2L607.2,79.2z M546.7,79.2V47.8c0-3.8-1-6.7-3-8.8
				c-2-2.1-4.8-3.2-8.3-3.2c-4,0.1-7.2,1.5-9.6,4.4s-3.5,6.4-3.5,10.8v28.2h-16.4V22h16.4v10c1.8-3.2,4.2-5.7,7.1-7.4
				c3.6-2.2,7.8-3.2,12.7-3.2c4.3,0,8,0.9,11.1,2.7c3.2,1.8,5.6,4.4,7.3,7.6c1.7,3.3,2.6,7.1,2.6,11.6v35.9H546.7z M498.6,79.3
				l-51-0.1v-10l29.5-34.7h-28.6V21.9l49,0.1v10L468,66.8h30.6L498.6,79.3L498.6,79.3z M412.1,54.3c-3.1,0-5.5,0.5-7,1.6
				s-2.3,2.8-2.3,5.1s0.8,4.1,2.4,5.4s3.8,2,6.5,2c2.4,0,4.6-0.4,6.5-1.2c1.9-0.8,3.4-1.9,4.7-3.3c1.2-1.3,1.9-2.8,2.2-4.6v-5
				L412.1,54.3L412.1,54.3z M425.1,79.2l0-6.8c-1.4,1.8-3.1,3.3-5.2,4.5c-3.5,2-7.7,3-12.8,3c-4,0-7.5-0.8-10.5-2.3
				s-5.2-3.7-6.8-6.4s-2.4-5.8-2.4-9.2c0-5.3,1.9-9.5,5.6-12.6c3.8-3,9.2-4.6,16.2-4.7H425v-1.1c0-3.1-1-5.6-3-7.3
				c-2-1.8-5-2.7-8.9-2.7c-2.6,0-5.3,0.4-8.2,1.3c-2.9,0.9-5.9,2.2-8.8,3.8l-5.1-10.7c2.8-1.5,5.6-2.7,8.3-3.7
				c2.7-1,5.5-1.8,8.3-2.3s5.9-0.8,9.3-0.8c7.7,0,13.7,1.8,17.9,5.4s6.3,8.6,6.4,15l0.1,37.4L425.1,79.2L425.1,79.2z M364.6,79.2
				V47.8c0-3.8-1-6.7-3-8.8c-2-2.1-4.8-3.2-8.3-3.2c-4.1,0.1-7.4,1.5-9.7,4.4s-3.5,6.4-3.5,10.8v28.2h-16.4V0.1h16.4V32
				c1.8-3.2,4.2-5.7,7.1-7.5c3.6-2.2,7.8-3.2,12.7-3.2c4.3,0,8.1,0.9,11.2,2.7c3.2,1.8,5.6,4.4,7.3,7.6c1.7,3.3,2.6,7.1,2.6,11.6
				v35.9L364.6,79.2L364.6,79.2z M317.4,79.2h-20.1l-21.4-30.8l-10.8,11.9v18.9h-16.8V4.6h16.8v35.5L296,4.6h19.6l-28.1,31.1
				L317.4,79.2L317.4,79.2z"/>
		</defs>
		<use xlink:href="#SVGID_1_"  style="overflow:visible;fill:#FFFFFF;"/>
		<clipPath id="SVGID_00000159442299431277833870000018258687117333183390_">
			<use xlink:href="#SVGID_1_"  style="overflow:visible;"/>
		</clipPath>
		<g style="clip-path:url(#SVGID_00000159442299431277833870000018258687117333183390_);">
			<g>
				<defs>
					<rect id="SVGID_00000079481460100174046270000007179926520312727728_" x="188.2" y="-530" width="1060" height="1060"/>
				</defs>
				<use xlink:href="#SVGID_00000079481460100174046270000007179926520312727728_"  style="overflow:visible;fill:#FFFFFF;"/>
				<clipPath id="SVGID_00000167377281847801145460000009428378909826013312_">
					<use xlink:href="#SVGID_00000079481460100174046270000007179926520312727728_"  style="overflow:visible;"/>
				</clipPath>
			</g>
			<rect x="244.3" y="-7.7" class="st1" width="584.6" height="248"/>
		</g>
	</g>
	<g>
		<defs>
			<path id="SVGID_00000137813768129810249710000017755850577476223374_" d="M574.7,209.4c2.4,0,4.4,0.8,5.9,2.3s2.3,3.5,2.3,5.9
				s-0.8,4.3-2.3,5.8c-1.5,1.5-3.5,2.3-5.9,2.3s-4.3-0.8-5.8-2.3s-2.3-3.5-2.3-5.8s0.8-4.4,2.3-5.9S572.3,209.4,574.7,209.4z
				 M558.6,198.6c-0.5,0-1-0.8-1.3-2.3s-0.5-3.5-0.5-6.1s0.2-4.4,0.5-5.9c0.3-1.5,0.8-2.2,1.3-2.2h14v-31h14.1v47.4L558.6,198.6
				L558.6,198.6z M560,196.4c-0.3,1.5-0.8,2.3-1.3,2.3h-20.2c-0.5,0-1-0.8-1.3-2.3s-0.5-3.5-0.5-6.1s0.2-4.4,0.5-5.9
				c0.3-1.5,0.8-2.2,1.3-2.2h20.2c0.5,0,1,0.7,1.3,2.2s0.5,3.4,0.5,5.9S560.3,194.8,560,196.4z M501.7,165.5c-1.8,1-3.2,2.2-4.2,3.7
				c-1,1.5-1.5,3.2-1.5,4.9c0,1.6,0.5,3.1,1.4,4.5c0.9,1.4,2.3,2.6,4.1,3.4c1.8,0.9,4,1.3,6.5,1.3h5.6v-18.5
				c-1.9-0.5-3.7-0.8-5.4-0.8C505.7,164,503.5,164.5,501.7,165.5L501.7,165.5z M539.8,196.4c-0.3,1.5-0.8,2.3-1.3,2.3h-10.8v1.9
				c0,5-1,9.3-3.1,13c-2.1,3.7-5,6.5-8.9,8.4s-8.3,2.9-13.5,2.9h-16.5v-16.4h16.5c4.2,0,7.2-0.7,8.9-2c1.7-1.3,2.5-3.3,2.5-5.9v-1.9
				h-5.5c-5.3,0-9.9-1.1-13.9-3.3c-4-2.2-7-5.2-9.1-8.9s-3.2-7.8-3.2-12.3c0-3.6,0.7-7,2-10c1.4-3.1,3.2-5.7,5.7-7.9s5.2-4,8.5-5.3
				c3.2-1.3,6.6-1.9,10.3-1.9s7,0.5,10.4,1.6s6.4,2.2,9.1,3.5v28.3h10.8c0.5,0,1,0.7,1.3,2.2s0.5,3.4,0.5,5.9
				S540.1,194.8,539.8,196.4L539.8,196.4z M448.9,145c3.6,2.7,6.8,5.2,9.5,7.4c3.2,2.6,5.8,5.1,7.9,7.4c2,2.3,3.5,4.8,4.5,7.3
				c1,2.5,1.4,5.2,1.4,8.3c0,4.8-1.2,8.9-3.5,12.3s-5.6,6.2-9.7,8.1s-8.8,2.9-14.1,2.9h-16.1c-0.5,0-1-0.8-1.3-2.3s-0.5-3.5-0.5-6.1
				s0.2-4.4,0.5-5.9c0.3-1.5,0.8-2.2,1.3-2.2H445c2.8,0,5.2-0.3,7.2-0.9s3.4-1.4,4.4-2.5c1-1.1,1.5-2.2,1.5-3.4
				c0-0.9-0.2-1.7-0.7-2.6c-0.5-0.9-1.4-1.9-2.8-3.3c-1.4-1.3-3.4-3.1-6-5.2c-2.6-2.1-6.2-4.8-10.6-8l-6.1-4.6v-14.5l45.3-20.9V134
				L448.9,145L448.9,145z M430.2,196.4c-0.3,1.5-0.8,2.3-1.3,2.3h-20.1c-0.5,0-1-0.8-1.3-2.3s-0.5-3.5-0.5-6.1s0.2-4.4,0.5-5.9
				c0.3-1.5,0.8-2.2,1.3-2.2h20.1c0.5,0,1,0.7,1.3,2.2s0.5,3.4,0.5,5.9S430.6,194.8,430.2,196.4z M410.1,196.4
				c-0.3,1.5-0.8,2.3-1.3,2.3h-20.1c-0.6,0-1-0.8-1.3-2.3s-0.5-3.5-0.5-6.1s0.2-4.4,0.5-5.9c0.3-1.5,0.8-2.2,1.3-2.2h20.1
				c0.6,0,1,0.7,1.3,2.2s0.5,3.4,0.5,5.9S410.4,194.8,410.1,196.4z M389.9,196.4c-0.3,1.5-0.8,2.3-1.3,2.3h-3.4
				c-4.9,0-9.1-0.9-12.5-2.8c-0.9-0.5-1.8-1.1-2.5-1.7c-1,0.9-2,1.6-3.1,2.2c-2.9,1.5-6,2.3-9.1,2.3c-2.9,0-5.7-0.6-8.4-1.9
				c-2.3-1.1-4.3-2.8-6-5c-1.5,2-3.4,3.5-5.4,4.6c-2.9,1.5-6,2.3-9.1,2.3c-2.9,0-5.7-0.6-8.4-1.9c-1.2-0.6-2.3-1.3-3.3-2.2
				c-0.2,0.7-0.4,1.4-0.6,2.1c-1.5,4.6-3.8,8.7-6.8,12.2s-6.7,6.2-11,8.2c-4.3,2-9.3,3-14.9,3s-10.6-1-14.8-3s-7.8-4.7-10.6-8.2
				c-2.8-3.5-5-7.5-6.4-12.1s-2.1-9.6-2.1-15c0-2.4,0.1-4.8,0.5-7.2c0.3-2.4,0.7-4.7,1.3-7l13.7,2.6c-0.4,2-0.7,3.9-0.9,5.8
				c-0.2,1.9-0.3,3.8-0.3,5.7c0,4.6,0.7,8.6,2.1,11.8c1.4,3.3,3.5,5.7,6.5,7.4c2.9,1.7,6.6,2.5,11.1,2.5s8.3-0.9,11.4-2.5
				c3.1-1.7,5.4-4.2,7-7.4c1.6-3.3,2.4-7.3,2.4-12.1v-21.2h14.1v17.4c0.4,1.4,1.2,2.5,2.3,3.3c1.6,1.2,3.2,1.8,5,1.8
				c2,0,3.7-0.7,5.3-2s2.4-3.4,2.4-6.2v-18.8h14.2v21.1c0,0.5,0,0.9,0,1.4c0.5,1.1,1.1,2.1,2.1,2.8c1.5,1.2,3.2,1.8,5,1.8
				c2,0,3.8-0.7,5.4-2c1-0.8,1.6-1.9,2-3.2c-0.1-1-0.1-2-0.1-3h0.6v-23.3h14.1v25.6c0,0.5,0,1,0,1.5c0.1,0.3,0.2,0.6,0.3,0.8
				c0.5,1.1,1.3,1.9,2.6,2.4c1.3,0.4,3.1,0.6,5.5,0.6h3.4c0.5,0,1,0.7,1.3,2.2s0.5,3.4,0.5,5.9S390.3,194.8,389.9,196.4L389.9,196.4
				z M821.6,79.2h-18.9l-11.5-19.1l-12.6,19.1h-18.1l19.8-29.3L761.9,22h18.8l10.5,17.7L802.4,22h17.9l-18.2,27.9L821.6,79.2
				L821.6,79.2z M745.1,42.3c-1.2-2.5-2.9-4.3-5-5.7c-2.1-1.3-4.6-2-7.5-2s-5.3,0.7-7.5,2c-2.2,1.3-3.9,3.2-5.1,5.7
				c-1.2,2.5-1.8,5.3-1.8,8.5s0.6,6,1.8,8.5s2.9,4.4,5.1,5.8c2.2,1.4,4.7,2.1,7.5,2.1s5.3-0.7,7.5-2.1s3.8-3.3,5-5.8
				s1.8-5.3,1.8-8.5S746.3,44.7,745.1,42.3z M759.5,65.9c-2.6,4.4-6.2,7.8-10.8,10.2c-4.6,2.4-10,3.6-16.1,3.6s-11.5-1.2-16.1-3.6
				c-4.7-2.4-8.3-5.8-10.8-10.2c-2.6-4.4-3.8-9.5-3.8-15.3s1.3-10.9,3.8-15.3s6.2-7.8,10.8-10.2c4.7-2.4,10-3.6,16.1-3.6
				s11.5,1.2,16.1,3.6c4.6,2.4,8.2,5.8,10.8,10.2s3.8,9.5,3.8,15.3S762,61.5,759.5,65.9z M677.3,49.9c-2.3-1.6-5.4-2.4-9.4-2.3
				h-16.6v18.3h16.6c4,0,7.1-0.8,9.4-2.5c2.3-1.6,3.4-3.9,3.4-6.9C680.7,53.7,679.6,51.5,677.3,49.9L677.3,49.9z M675.4,20
				c-1.8-1.5-4.3-2.1-7.5-2.1h-16.6v16.8h16.6c3.1,0,5.6-0.8,7.5-2.3c1.8-1.5,2.8-3.6,2.8-6.3S677.2,21.4,675.4,20L675.4,20z
				 M682.5,39.7c4.8,0.9,8.6,3.1,11.4,6.5s4.2,7.5,4.2,12.4c0,4.3-1.2,7.9-3.5,11s-5.6,5.5-9.8,7.1s-9.2,2.5-14.9,2.5h-35.5V4.6
				h34.3c5.5,0,10.2,0.7,14.2,2.2c4,1.5,7,3.6,9.2,6.4s3.2,6.1,3.2,10c0,4-1.2,7.5-3.5,10.5S686.5,38.7,682.5,39.7L682.5,39.7z"/>
		</defs>
		<use xlink:href="#SVGID_00000137813768129810249710000017755850577476223374_"  style="overflow:visible;fill:#FFFFFF;"/>
		<clipPath id="SVGID_00000181054629843858869770000018429893377486704786_">
			<use xlink:href="#SVGID_00000137813768129810249710000017755850577476223374_"  style="overflow:visible;"/>
		</clipPath>
		<g style="clip-path:url(#SVGID_00000181054629843858869770000018429893377486704786_);">
			<g>
				<defs>
					<rect id="SVGID_00000156557823859427652060000002531351421476819614_" x="-106.8" y="-445.2" width="1060" height="1060"/>
				</defs>
				<use xlink:href="#SVGID_00000156557823859427652060000002531351421476819614_"  style="overflow:visible;fill:#FFFFFF;"/>
				<clipPath id="SVGID_00000087388839001534646430000014266057798944000896_">
					<use xlink:href="#SVGID_00000156557823859427652060000002531351421476819614_"  style="overflow:visible;"/>
				</clipPath>
				
					<rect x="241.1" y="-13.4" style="clip-path:url(#SVGID_00000087388839001534646430000014266057798944000896_);fill:#E3201B;" width="584.6" height="248"/>
			</g>
		</g>
	</g>
	<g>
		<defs>
			<path id="SVGID_00000024708859496570462410000008417042496654385575_" d="M71.4,82.5c-8.2,0-14.8-6.6-14.8-14.8
				c0-1.2,0.2-2.4,0.5-3.6c1.6,6.4,7.4,11.2,14.3,11.2s12.7-4.8,14.3-11.2c0.3,1.2,0.5,2.3,0.5,3.6C86.1,75.9,79.5,82.5,71.4,82.5z
				 M138.4,82.5c-8.2,0-14.8-6.6-14.8-14.8c0-1.2,0.2-2.4,0.5-3.6c1.6,6.4,7.4,11.2,14.3,11.2s12.7-4.8,14.3-11.2
				c0.3,1.2,0.5,2.3,0.5,3.6C153.1,75.9,146.5,82.5,138.4,82.5z M105,162c-28.4,0-51.5-23-51.5-51.5H54c3.5,25,25,44.3,51,44.3
				s47.5-19.3,50.9-44.3h0.5C156.4,139,133.4,162,105,162z M192.6,36.9c0-10.8-8.8-19.5-19.5-19.5H36.9c-10.8,0-19.5,8.8-19.5,19.5
				v136.1c0,10.8,8.8,19.5,19.5,19.5h136.1c10.8,0,19.5-8.8,19.5-19.5L192.6,36.9L192.6,36.9z M173.1,210h-0.2
				c-0.1,8.1-6.7,14.5-14.8,14.5s-14.6-6.5-14.8-14.5H67c-0.1,8.1-6.7,14.5-14.8,14.5S37.6,218,37.5,210h-0.6
				C16.6,210,0,193.4,0,173.1V36.9C0,16.6,16.6,0,36.9,0h136.1C193.4,0,210,16.6,210,36.9v136.1C210,193.4,193.4,210,173.1,210
				L173.1,210z"/>
		</defs>
		<use xlink:href="#SVGID_00000024708859496570462410000008417042496654385575_"  style="overflow:visible;fill:#FFFFFF;"/>
		<clipPath id="SVGID_00000111157813602061347000000003395688189999617190_">
			<use xlink:href="#SVGID_00000024708859496570462410000008417042496654385575_"  style="overflow:visible;"/>
		</clipPath>
		<g style="clip-path:url(#SVGID_00000111157813602061347000000003395688189999617190_);">
			<g>
				<defs>
					<rect id="SVGID_00000114075549711277229970000013373649665354230161_" x="-106.8" y="-445.2" width="1060" height="1060"/>
				</defs>
				<use xlink:href="#SVGID_00000114075549711277229970000013373649665354230161_"  style="overflow:visible;fill:#FFFFFF;"/>
				<clipPath id="SVGID_00000062879274323276524590000007392622552743819905_">
					<use xlink:href="#SVGID_00000114075549711277229970000013373649665354230161_"  style="overflow:visible;"/>
				</clipPath>
				
					<rect x="-10" y="-13" style="clip-path:url(#SVGID_00000062879274323276524590000007392622552743819905_);fill:#E3201B;" width="232" height="248"/>
			</g>
		</g>
	</g>
</g>
</svg>
