<?xml version="1.0" encoding="UTF-8"?>
<svg xmlns="http://www.w3.org/2000/svg" xmlns:xlink="http://www.w3.org/1999/xlink" version="1.1" viewBox="0 0 1000 1000">
  <defs>
    <style>
      .cls-1 {
        fill: none;
      }

      .cls-2 {
        fill: #ffcb05;
      }

      .cls-3 {
        fill: #55aa5c;
      }

      .cls-4 {
        fill: url(#linear-gradient-13);
      }

      .cls-4, .cls-5, .cls-6, .cls-7, .cls-8, .cls-9, .cls-10, .cls-11, .cls-12, .cls-13, .cls-14, .cls-15 {
        isolation: isolate;
      }

      .cls-4, .cls-5, .cls-6, .cls-8, .cls-9, .cls-15 {
        mix-blend-mode: multiply;
      }

      .cls-5 {
        fill: url(#linear-gradient-12);
      }

      .cls-6 {
        fill: url(#linear-gradient-10);
      }

      .cls-16 {
        fill: url(#linear-gradient-5);
      }

      .cls-17 {
        fill: url(#linear-gradient-6);
      }

      .cls-18 {
        fill: url(#linear-gradient-4);
      }

      .cls-8 {
        fill: url(#linear-gradient-7);
      }

      .cls-9 {
        fill: url(#linear-gradient-3);
      }

      .cls-19 {
        clip-path: url(#clippath-1);
      }

      .cls-20 {
        clip-path: url(#clippath-2);
      }

      .cls-21 {
        fill: #fff;
      }

      .cls-22 {
        fill: #a154a1;
      }

      .cls-10 {
        fill: url(#linear-gradient-9);
      }

      .cls-10, .cls-11, .cls-12, .cls-13, .cls-14 {
        mix-blend-mode: overlay;
      }

      .cls-11 {
        fill: url(#linear-gradient-8);
      }

      .cls-23 {
        fill: #2f3167;
      }

      .cls-12 {
        fill: url(#linear-gradient-14);
      }

      .cls-13 {
        fill: url(#linear-gradient-11);
      }

      .cls-14 {
        fill: url(#linear-gradient);
      }

      .cls-24 {
        fill: #2e3569;
      }

      .cls-15 {
        fill: url(#linear-gradient-2);
        opacity: .8;
      }

      .cls-25 {
        fill: #ef4130;
      }

      .cls-26 {
        fill: #f7941d;
      }

      .cls-27 {
        clip-path: url(#clippath);
      }
    </style>
    <linearGradient id="linear-gradient" x1="747.5" y1="598.2" x2="460.7" y2="708.6" gradientTransform="translate(0 -78)" gradientUnits="userSpaceOnUse">
      <stop offset="0" stop-color="#fff"/>
      <stop offset=".4" stop-color="#fff" stop-opacity="0"/>
      <stop offset="1" stop-color="#fff" stop-opacity="0"/>
    </linearGradient>
    <linearGradient id="linear-gradient-2" x1="539.7" y1="666.1" x2="629" y2="668.2" gradientTransform="translate(0 -78)" gradientUnits="userSpaceOnUse">
      <stop offset="0" stop-color="#fff"/>
      <stop offset=".2" stop-color="#e2e7e4"/>
      <stop offset=".2" stop-color="#cbd4cf"/>
      <stop offset=".3" stop-color="#90a497"/>
      <stop offset=".4" stop-color="#6b8675"/>
      <stop offset=".4" stop-color="#5e7b68"/>
      <stop offset=".5" stop-color="#0e3a1d"/>
      <stop offset=".7" stop-color="#c7d1cb"/>
      <stop offset=".9" stop-color="#fbfcfb"/>
      <stop offset="1" stop-color="#fff"/>
    </linearGradient>
    <linearGradient id="linear-gradient-3" x1="395.3" y1="277.4" x2="586.4" y2="412.5" gradientTransform="translate(0 1002) scale(1 -1)" gradientUnits="userSpaceOnUse">
      <stop offset="0" stop-color="#0e3a1d"/>
      <stop offset="0" stop-color="#20482e"/>
      <stop offset="0" stop-color="#53735e"/>
      <stop offset="0" stop-color="#819889"/>
      <stop offset=".2" stop-color="#a8b8ad"/>
      <stop offset=".3" stop-color="#c7d1cb"/>
      <stop offset=".5" stop-color="#fbfcfb"/>
      <stop offset=".6" stop-color="#fff"/>
      <stop offset="1" stop-color="#fff"/>
    </linearGradient>
    <linearGradient id="linear-gradient-4" x1="228.8" y1="425.1" x2="419.8" y2="331.4" gradientTransform="translate(0 -78)" gradientUnits="userSpaceOnUse">
      <stop offset="0" stop-color="#0f1028"/>
      <stop offset="0" stop-color="#1d274d"/>
      <stop offset=".3" stop-color="#2d3f74"/>
      <stop offset=".4" stop-color="#374e8d"/>
      <stop offset=".5" stop-color="#3b5496"/>
      <stop offset=".6" stop-color="#374e8d"/>
      <stop offset=".7" stop-color="#2d3f74"/>
      <stop offset=".9" stop-color="#1d274d"/>
      <stop offset="1" stop-color="#0f1028"/>
      <stop offset="1" stop-color="#0f1028"/>
    </linearGradient>
    <clipPath id="clippath">
      <polygon class="cls-1" points="206.1 314 230.4 373.9 295.8 293.1 249.7 249.4 206.1 314"/>
    </clipPath>
    <linearGradient id="linear-gradient-5" x1="296.9" y1="598.9" x2="512.8" y2="350.2" gradientTransform="translate(0 -78)" gradientUnits="userSpaceOnUse">
      <stop offset="0" stop-color="#0f1028"/>
      <stop offset="0" stop-color="#1d274d"/>
      <stop offset=".3" stop-color="#2d3f74"/>
      <stop offset=".4" stop-color="#374e8d"/>
      <stop offset=".5" stop-color="#3b5496"/>
      <stop offset=".6" stop-color="#374e8d"/>
      <stop offset=".7" stop-color="#2d3f74"/>
      <stop offset=".9" stop-color="#1d274d"/>
      <stop offset="1" stop-color="#0f1028"/>
      <stop offset="1" stop-color="#0f1028"/>
    </linearGradient>
    <linearGradient id="linear-gradient-6" x1="384.6" y1="724.2" x2="618.6" y2="453.1" gradientTransform="translate(0 -78)" gradientUnits="userSpaceOnUse">
      <stop offset="0" stop-color="#0f1028"/>
      <stop offset="0" stop-color="#1d274d"/>
      <stop offset=".3" stop-color="#2d3f74"/>
      <stop offset=".4" stop-color="#374e8d"/>
      <stop offset=".5" stop-color="#3b5496"/>
      <stop offset=".6" stop-color="#374e8d"/>
      <stop offset=".7" stop-color="#2d3f74"/>
      <stop offset=".9" stop-color="#1d274d"/>
      <stop offset="1" stop-color="#0f1028"/>
      <stop offset="1" stop-color="#0f1028"/>
    </linearGradient>
    <clipPath id="clippath-1">
      <polygon class="cls-1" points="261.5 447.2 314.3 484.3 461.4 274.8 414 229.9 261.5 447.2"/>
    </clipPath>
    <clipPath id="clippath-2">
      <polygon class="cls-1" points="571 709.8 636.4 680.6 643.6 400.8 580.5 341 571 709.8"/>
    </clipPath>
    <linearGradient id="linear-gradient-7" x1="269.9" y1="575.7" x2="379.9" y2="411.4" gradientTransform="translate(0 -78)" gradientUnits="userSpaceOnUse">
      <stop offset="0" stop-color="#570d0e"/>
      <stop offset="0" stop-color="#570d0e"/>
      <stop offset=".4" stop-color="#fff"/>
      <stop offset="1" stop-color="#fff"/>
    </linearGradient>
    <linearGradient id="linear-gradient-8" x1="440.8" y1="334.8" x2="335.9" y2="472" gradientTransform="translate(0 -78)" gradientUnits="userSpaceOnUse">
      <stop offset="0" stop-color="#fff"/>
      <stop offset=".4" stop-color="#fff" stop-opacity="0"/>
      <stop offset="1" stop-color="#fff" stop-opacity="0"/>
    </linearGradient>
    <linearGradient id="linear-gradient-9" x1="275.7" y1="345.4" x2="218.5" y2="421.3" gradientTransform="translate(0 -78)" gradientUnits="userSpaceOnUse">
      <stop offset="0" stop-color="#fff"/>
      <stop offset=".4" stop-color="#fff" stop-opacity="0"/>
      <stop offset="1" stop-color="#fff" stop-opacity="0"/>
    </linearGradient>
    <linearGradient id="linear-gradient-10" x1="165.5" y1="447.5" x2="311.3" y2="334.3" gradientTransform="translate(0 -78)" gradientUnits="userSpaceOnUse">
      <stop offset="0" stop-color="#693f18"/>
      <stop offset=".5" stop-color="#fff"/>
      <stop offset="1" stop-color="#fff"/>
    </linearGradient>
    <linearGradient id="linear-gradient-11" x1="600.6" y1="389.3" x2="607.4" y2="635.5" gradientTransform="translate(0 -78)" gradientUnits="userSpaceOnUse">
      <stop offset="0" stop-color="#fff"/>
      <stop offset=".4" stop-color="#fff" stop-opacity="0"/>
      <stop offset="1" stop-color="#fff" stop-opacity="0"/>
    </linearGradient>
    <linearGradient id="linear-gradient-12" x1="603.7" y1="821.8" x2="607.5" y2="622" gradientTransform="translate(0 -78)" gradientUnits="userSpaceOnUse">
      <stop offset="0" stop-color="#570d0e"/>
      <stop offset="0" stop-color="#570d0e"/>
      <stop offset=".4" stop-color="#fff"/>
      <stop offset="1" stop-color="#fff"/>
    </linearGradient>
    <linearGradient id="linear-gradient-13" x1="318" y1="717.9" x2="533.2" y2="393.4" gradientTransform="translate(0 -78)" gradientUnits="userSpaceOnUse">
      <stop offset="0" stop-color="#a154a1"/>
      <stop offset=".4" stop-color="#fff"/>
      <stop offset="1" stop-color="#fff"/>
    </linearGradient>
    <linearGradient id="linear-gradient-14" x1="580" y1="341.7" x2="368.4" y2="632.8" gradientTransform="translate(0 -78)" gradientUnits="userSpaceOnUse">
      <stop offset="0" stop-color="#fff"/>
      <stop offset=".4" stop-color="#fff" stop-opacity="0"/>
      <stop offset="1" stop-color="#fff" stop-opacity="0"/>
    </linearGradient>
  </defs>
  <!-- Generator: Adobe Illustrator 28.6.0, SVG Export Plug-In . SVG Version: 1.2.0 Build 709)  -->
  <g>
    <g id="Layer_1">
      <g id="Layer_1-2" data-name="Layer_1">
        <g class="cls-7">
          <g id="Layer_1-2">
            <g>
              <polygon class="cls-24" points="358.5 742.7 365.4 749.6 365.4 756.6 341.2 756.6 341.2 760 358.5 760 365.4 767 365.4 784.3 358.5 791.2 334.2 791.2 327.3 784.3 327.3 777.4 351.5 777.4 351.5 773.9 334.2 773.9 327.3 767 327.3 749.6 334.2 742.7 358.5 742.7"/>
              <path class="cls-24" d="M400.1,742.7l6.9,6.9v41.6h-13.9v-10.4h-10.4v10.4h-13.9v-41.6l6.9-6.9h24.4ZM393.1,756.6h-10.4v10.4h10.4v-10.4Z"/>
              <polygon class="cls-24" points="434.7 777.4 434.7 742.7 448.6 742.7 448.6 784.3 441.6 791.2 417.4 791.2 410.4 784.3 410.4 742.7 424.3 742.7 424.3 777.4 434.7 777.4"/>
              <path class="cls-24" d="M483.2,742.7l6.9,6.9v34.6l-6.9,6.9h-31.2v-48.5h31.2ZM476.3,756.6h-10.4v20.8h10.4v-20.8Z"/>
              <rect class="cls-24" x="493.6" y="742.7" width="13.9" height="48.5"/>
              <polygon class="cls-24" points="521.3 756.6 521.3 749.6 528.3 742.7 552.5 742.7 559.4 749.6 559.4 767 552.5 773.9 535.2 773.9 535.2 777.4 559.4 777.4 559.4 791.2 521.3 791.2 521.3 767 528.3 760 545.6 760 545.6 756.6 521.3 756.6"/>
              <path class="cls-24" d="M594.1,742.7l6.9,6.9v34.6l-6.9,6.9h-24.3l-6.9-6.9v-34.6l6.9-6.9h24.3ZM587.2,756.6h-10.4v20.8h10.4v-20.8Z"/>
              <polygon class="cls-24" points="604.5 756.6 604.5 742.7 635.7 742.7 642.6 749.6 642.6 763.5 639.1 767 642.6 770.4 642.6 784.3 635.7 791.2 604.5 791.2 604.5 777.4 628.7 777.4 628.7 773.9 607.9 773.9 607.9 760 628.7 760 628.7 756.6 604.5 756.6"/>
              <polygon class="cls-24" points="666.8 763.5 666.8 742.7 680.7 742.7 680.7 763.5 684.2 763.5 684.2 777.4 680.7 777.4 680.7 791.2 666.8 791.2 666.8 777.4 653 777.4 646.1 770.4 646.1 742.7 659.9 742.7 659.9 763.5 666.8 763.5"/>
              <polygon class="cls-3" points="705.2 559.8 705.1 559.7 637.6 587.6 637.6 580.9 693 557.3 700 549.6 697.2 544.2 686.5 543.8 637.6 571 637.6 559.2 684.2 538.2 690.8 530.8 683.7 525.6 637.6 551.1 637.6 541.7 693.5 514.6 696.5 495.3 607.9 539.2 607 539.2 607 539.6 387.7 648.2 442.3 682.3 742.6 560.8 705.2 559.8"/>
              <polygon class="cls-24" points="556.1 580.9 560.7 584.7 566.3 585 570.7 583 572.4 577.8 569.5 573.3 564.3 573.6 556.4 577.4 556.1 580.9"/>
              <path class="cls-24" d="M575.9,588.1l-4.1-.9-5.3,2.3-1.1,3,3.3,5.6s3.3.6,4.2.2c1.5-.6,4.4-2.2,4.4-2.2l.6-2.8-1.9-5.2h-.1Z"/>
              <polygon class="cls-24" points="561.1 599.5 563.1 597.2 560.7 591.4 553.7 588.5 550.1 589.3 550.1 593.8 551.6 599.5 555.2 603.6 558.7 603.5 561.1 599.5"/>
              <polygon class="cls-24" points="577 607.4 573.2 603.4 566.1 602.3 561.5 605.4 561.5 610 568.3 611.7 576.1 611.2 577 607.4"/>
              <polygon class="cls-21" points="544.1 588.6 543.5 594.4 545 604.1 550.9 612.9 561.3 617.4 563.3 615.6 562.2 613.8 553.1 610.2 546.6 600.6 546.3 589.9 548 583.9 547.4 582.3 546 582.8 544.1 588.6"/>
              <polygon class="cls-21" points="515.4 605.5 533.2 597.2 533.6 595.8 532.3 595.2 514.6 602.8 513.7 604.5 515.4 605.5"/>
              <polygon class="cls-21" points="519.7 611.6 518.8 613.3 520.5 614.3 528.9 611 537.4 607.3 537.6 605.5 536.4 605.1 528.1 608.5 519.7 611.6"/>
              <polygon class="cls-21" points="523.9 624.3 533.6 620.2 542.5 616.2 542.6 614.5 541.5 614.2 532.4 617.9 523.1 621.6 522.2 622.8 523.9 624.3"/>
              <polygon class="cls-21" points="546.1 622.4 535.9 626.6 526.8 631.3 526.3 632.2 528.4 633.8 537.6 629.3 547.1 624.5 547.5 623.1 546.1 622.4"/>
              <polygon class="cls-14" points="705.2 559.8 705.1 559.7 637.6 587.6 637.6 580.9 693 557.3 700 549.6 697.2 544.2 686.5 543.8 637.6 571 637.6 559.2 684.2 538.2 690.8 530.8 683.7 525.6 637.6 551.1 637.6 541.7 693.5 514.6 696.5 495.3 607.9 539.2 607 539.2 607 539.6 387.7 648.2 442.3 682.3 742.6 560.8 705.2 559.8"/>
              <polygon class="cls-15" points="705.2 559.8 705.1 559.7 637.6 587.6 637.6 580.9 693 557.3 700 549.6 697.2 544.2 686.5 543.8 637.6 571 637.6 559.2 684.2 538.2 690.8 530.8 683.7 525.6 637.6 551.1 637.6 541.7 693.5 514.6 696.5 495.3 607.9 539.2 607 539.2 607 539.6 387.7 648.2 442.3 682.3 742.6 560.8 705.2 559.8"/>
              <polygon class="cls-9" points="705.2 559.8 705.1 559.7 637.6 587.6 637.6 580.9 693 557.3 700 549.6 697.2 544.2 686.5 543.8 637.6 571 637.6 559.2 684.2 538.2 690.8 530.8 683.7 525.6 637.6 551.1 637.6 541.7 693.5 514.6 696.5 495.3 607.9 539.2 607 539.2 607 539.6 387.7 648.2 442.3 682.3 742.6 560.8 705.2 559.8"/>
              <polygon class="cls-24" points="492.3 627.6 505.4 610.3 504.7 606.8 494.3 611.9 487.9 617.8 485.2 615.6 482.4 614.7 481.1 617.6 481.5 620.8 473.5 622.1 462.3 627.2 464.6 629.6 485.8 630.6 486.6 638 488.2 638.8 493 636.2 498.4 633.3 498.1 631.4 492.3 627.6"/>
              <polygon class="cls-21" points="474.6 645.5 470.1 635.1 468.9 634.5 468.2 635.6 472.5 646.5 476.5 657.2 479 658.1 479.7 655.7 477.2 651 474.6 645.5"/>
              <polygon class="cls-21" points="483.3 642.9 478.4 633.9 477.1 633.5 476.5 635.1 481.1 644.4 484.6 653.4 487.7 654.7 488.6 651.6 483.3 642.9"/>
              <polygon class="cls-21" points="511.2 628.5 506.1 618.4 506.3 617.1 507.7 617.3 513.3 627.6 518.9 637.5 517.9 640 515.6 639 513.7 634.1 511.2 628.5"/>
              <polygon class="cls-21" points="503.5 633.5 499.9 624 500.4 622.7 502 623.3 506.1 632.7 510.7 641.3 509.7 644.4 506.8 643.2 503.5 633.5"/>
              <polygon class="cls-21" points="496.2 638.8 494.6 638.6 493.7 639.9 495.3 644.5 497.2 648.9 500.1 648.6 500.9 646.8 498.6 642.7 496.2 638.8"/>
              <polygon class="cls-21" points="469.7 620.3 471.6 619.9 472.8 617.8 471.6 615.7 468.8 615.5 467.4 617.9 468.1 619.7 469.7 620.3"/>
              <polygon class="cls-21" points="492.5 610 493.4 608.3 492.6 606 490.3 605.5 488.3 607.6 489.1 610.1 491 610.8 492.5 610"/>
              <polygon class="cls-24" points="591.3 592.7 587.6 591.8 582.7 594.2 580.4 598.8 580.3 603.2 582.7 605.9 585.8 606.2 591.2 598.5 591.3 592.7"/>
              <polygon class="cls-24" points="582.4 588.3 587.8 586.9 589.6 584.3 586.1 579.3 580.4 575.7 577.5 577.5 577.2 584.9 582.4 588.3"/>
              <polygon class="cls-21" points="598.4 587.1 595.1 577.9 587.1 570.2 578 567.7 576.2 569.5 578.1 571.5 588.3 575.1 592.9 580.2 595.8 588.4 594.9 599.5 597 600 598.4 587.1"/>
              <polygon class="cls-21" points="435.7 642.5 453.5 634.2 453.9 632.8 452.6 632.2 434.9 639.8 434 641.5 435.7 642.5"/>
              <polygon class="cls-21" points="440.1 648.6 439.2 650.3 440.9 651.3 449.3 648 457.7 644.3 457.9 642.4 456.7 642.1 448.4 645.5 440.1 648.6"/>
              <polygon class="cls-21" points="444.2 661.3 453.9 657.2 462.8 653.2 463 651.5 461.9 651.2 452.7 654.9 443.4 658.6 442.6 659.8 444.2 661.3"/>
              <path class="cls-24" d="M783.7,477.6l-39.8-4.5-36.4,17.3-4.5,36.3,14.1,25.3,52.8-1.7,28.4-11.9,6.1-34.3-20.6-26.5h0ZM736.2,522.3l-2.7,5.5-4.5.5-5.3-4.9-2.8-7.4-.5-5.9,4.7-1.6,9.5,3.1,3.9,7.3-2.4,3.4h0ZM731.4,498.2v-5.2l11.2-6.7,7.5-1.2,5,6.3-1.8,8-6.3,3.6-8.2.3-7.4-5h0ZM764.6,540.3l-11.4,1.8-10.4-1.5-.6-6.8,6.3-5.2,10.6.6,6.2,5.5-.8,5.7h.1ZM764.9,517s-4,2.8-6.1,3.9c-1.3.7-6.2.2-6.2.2l-5.7-7.8,1.2-4.5,7.5-4.1,6.2.7,3.5,7.4-.5,4.1h0ZM766.2,499.2l-.6-10.9,4.1-3.1,8.9,4.5,5.8,7-2.4,4.1-7.8,2.8-8-4.3h0ZM782.3,532.2h-4.7l-3.9-3.7-.4-6.4,2.8-7.1,6.9-4.2,5.6.9.7,8.5-6.9,12.1h0Z"/>
              <polygon class="cls-18" points="284.4 282.3 295.8 293.1 230.4 373.9 345.7 327.2 414 229.9 284.4 282.3"/>
              <polygon class="cls-2" points="249.7 249.4 206.1 314 230.4 373.9 295.8 293.1 249.7 249.4"/>
              <g class="cls-27">
                <g>
                  <polygon class="cls-24" points="219.3 326.5 216.3 342.3 234 335.4 235.3 318.8 219.3 326.5"/>
                  <path class="cls-21" d="M235.2,317.6s-5.6,2.6-8.4,4.1c-1.8.9-6.3,2.7-6.3,2.7l-1.4,1.2-2.2,7.2-1.6,8.4v1.5c-.1,0,2.4.2,2.4.2l4.2-2.4,4.9-1.6,4.8-1.4,2.9-2.4,1-7,1.2-9.4-1.6-1h.1ZM233.4,326.3v3.8c-.1,0-.6,4-.6,4l-2.1,1.3-6.9,1.8-3.5,1-3.1,1.3,1.3-5.2,2.1-7.5,1.4-1.1,2.9-1,3.3-1.5s4-2.3,6.1-3.2c-.4,2-.8,6.1-.8,6.1"/>
                  <polygon class="cls-24" points="222.7 304.9 220.7 314.8 231.8 310.4 232.6 299.9 222.7 304.9"/>
                  <path class="cls-21" d="M232.5,299.3s-3.5,1.7-5.3,2.5c-1.1.6-3.9,1.7-3.9,1.7l-.9.8-1.4,4.5-1,5.3v1h1.5c0,.1,2.7-1.4,2.7-1.4l3.1-1,3-.9,1.8-1.5.6-4.4.7-5.9-1-.6h0ZM231.4,304.7v2.4l-.4,2.5-1.3.8-4.4,1.1-2.2.6-1.9.8.8-3.2,1.3-4.7.9-.7,1.8-.6,2.1-.9s2.5-1.5,3.8-2c-.3,1.3-.5,3.8-.5,3.8"/>
                  <polygon class="cls-24" points="199.5 333.8 197.4 343.7 208.6 339.3 209.4 328.8 199.5 333.8"/>
                  <path class="cls-21" d="M209.3,328.2s-3.5,1.7-5.3,2.5c-1.1.6-3.9,1.7-3.9,1.7l-.9.8-1.4,4.5-1,5.3v1h1.5c0,.1,2.7-1.4,2.7-1.4l3.1-1,3-.9,1.8-1.5.6-4.4.7-5.9-1-.6h0ZM208.2,333.6v2.4l-.4,2.5-1.3.8-4.4,1.1-2.2.6-1.9.8.8-3.2,1.3-4.7.9-.7,1.8-.6,2.1-.9s2.5-1.5,3.8-2c-.3,1.3-.5,3.8-.5,3.8"/>
                  <polygon class="cls-24" points="244.8 322.7 242.8 332.5 253.9 328.2 254.7 317.7 244.8 322.7"/>
                  <path class="cls-21" d="M254.6,317s-3.5,1.7-5.3,2.5c-1.1.6-3.9,1.7-3.9,1.7l-.9.8-1.4,4.5-1,5.3v1h1.5c0,.1,2.7-1.4,2.7-1.4l3.1-1,3-.9,1.8-1.5.6-4.4.7-5.9-1-.6h0ZM253.5,322.5v2.4l-.4,2.5-1.3.8-4.4,1.1-2.2.6-1.9.8.8-3.2,1.3-4.7.9-.7,1.8-.6,2.1-.9s2.5-1.5,3.8-2c-.3,1.3-.5,3.8-.5,3.8"/>
                  <polygon class="cls-24" points="221.6 351.6 219.5 361.4 230.7 357 231.5 346.6 221.6 351.6"/>
                  <path class="cls-21" d="M231.4,345.9s-3.5,1.7-5.3,2.5c-1.1.6-3.9,1.7-3.9,1.7l-.9.8-1.4,4.5-1,5.3v1h1.5c0,.1,2.7-1.4,2.7-1.4l3.1-1,3-.9,1.8-1.5.6-4.4.7-5.9-1-.6h0ZM230.3,351.4v2.4l-.4,2.5-1.3.8-4.4,1.1-2.2.6-1.9.8.8-3.2,1.3-4.7.9-.7,1.8-.6,2.1-.9s2.5-1.5,3.8-2c-.3,1.3-.5,3.8-.5,3.8"/>
                  <polygon class="cls-24" points="248.1 274.7 238.3 288 240.6 290.9 237 296 244.1 301 245.5 299.2 248.9 295.5 254.8 293.5 259.8 298.5 260.7 302.9 263 305 261.1 309.2 265.2 312.6 277.5 297 272.8 294.1 269.2 297.4 265.8 294.1 261.8 294.5 256.7 290.9 258.1 285 259 281.6 261.1 278.2 259.1 275.8 255 274.1 252 277.4 248.1 274.7"/>
                  <path class="cls-21" d="M267,293.3s-2.5.4-3.5.5c-.3,0-2.4-.8-2.4-.8l-4.3-2.7-.6,1.2,6.4,4.2,3.6-.5,2.5,2.2-.5,1.3-4.9,5.4s-1.6-1.5-1.8-1.6c0-.5-.4-3.4-.4-3.4l-6.1-6.6-1,.9,5.2,6.3.3,3.8,3.2,2.7,2.1-1.2,1.2-1.3,4.9-5.6-.2-1.5-3.8-3.2h0ZM262.5,293.8h0M266.5,294.9h0"/>
                  <path class="cls-21" d="M248.2,273.2l-2.8,2.6-8.8,12,.5,2.6,10.6,6.4,6.7-1.7,3.3-3.3,1.8-4.3-.5-6.2-10.7-8h0ZM256.6,284.1l.4,4.1-1.7,3.2-2.3,2.2-4.7,1-3.5-1.1-5.9-4.7,9.6-12.5,6.2,4.8,1.6,3.2.3-.2Z"/>
                  <polygon class="cls-21" points="247.2 295.6 244.3 299.9 242.7 297.9 238 295.5 240.8 292.1 239.6 291.4 236 294.7 236.3 296.8 244.9 302.3 249.3 296 247.2 295.6"/>
                  <polygon class="cls-21" points="259.8 275.3 254.4 272.9 251.9 277 252.8 277.5 254.9 274.6 258.6 276.4 260.2 278.4 257.2 282.3 258 284.4 261.1 280.4 262.3 278.4 259.8 275.3"/>
                  <path class="cls-21" d="M278.4,296.4l-4.6-3h-1.3c0,.1-2.3,2.9-2.3,2.9l.8,1.7,2.3-2.6,3.2,2.2-9.5,11.2-2,2.8s-2.4-1.7-3.1-2.2c1.2-1.7,3.3-5.2,3.3-5.2l-1.2-.7-4,5.5v1.2c.1,0,3.2,2.4,3.2,2.4l1.7,1,1.4-.9,2.6-3.1,5.4-7.4,4.6-4.7-.6-1.2h.1Z"/>
                </g>
              </g>
              <polygon class="cls-16" points="408.5 350.2 314.3 484.3 426 414.4 504.9 286.6 408.5 350.2"/>
              <polygon class="cls-17" points="497.2 594 577.3 464.4 580.5 341 387.7 648.2 497.2 594"/>
              <polygon class="cls-25" points="414 229.9 261.5 447.2 314.3 484.3 461.4 274.8 414 229.9"/>
              <g class="cls-19">
                <g>
                  <path class="cls-23" d="M309.2,445.4s-3.7.5-6.4,5.4c-1.4,2.5-1.2,5.8,0,8.4,1.1,2.3,3.1,4.1,5.6,4.6,1.2.2,2.5,0,3.8-.3,2.2-.7,4.2-2,5.6-3.8s2.1-4.2,1.9-6.5c-.3-2.6-1.9-5-4.1-6.4-2.3-1.3-6.3-1.3-6.3-1.3"/>
                  <polygon class="cls-21" points="291.2 432.5 290.2 428.7 288.9 428.5 279.8 441.4 279.3 443.5 282.5 442.9 284.8 441.8 288.5 436.3 291.2 432.5"/>
                  <path class="cls-21" d="M279.4,444.4l-.4.3.8,1.7c7.4,9.2,4.7,2.8,15.7,9.3l2.3,2.1.7-.6-.7-2.6v-1.9l-.7-.6-7.1-2.4-4.8-2.8-5.8-2.6h0Z"/>
                  <polygon class="cls-21" points="293.8 427.9 291.6 427.3 291 427.9 299.9 437 303.1 441.5 305 442.8 307.3 442.4 310.2 442.2 310.6 441.3 304.9 437.2 301.6 433.4 299.3 430.2 293.8 427.9"/>
                  <path class="cls-21" d="M310.5,450.5s-1.2,1.6-1.3,1.8c-.5-.1-1.4-.4-1.4-.4l-.8.3v.9l1.1,1.1c-.4.7-1,2.2-1,2.2l1,1s1.2-.6,1.9-.9c.2.2,1.3,2,1.3,2h1.1l.2-.6-.3-2.1,1.7-.4.6-.7-.3-.6-1.6-.6-.8-.2-.4-2.4-.5-.4-.6.3v-.3h0Z"/>
                  <path class="cls-21" d="M309.7,444.6l4.6.7,4.9,3.4,2,4.1-2.1,7.5-8.1,5.4-6.8-3-3.1-3.8v-5.7c-.1,0,1.2-3.7,1.2-3.7l2.5-2.8,4.7-2h.2,0ZM316.1,448.7l-4.7-2.4-5.5,1.6-2.8,4.3.3,5.8,4.2,4.3,4.5.2,5.2-4.2,1.4-5.1-2.5-4.5h-.1Z"/>
                  <polygon class="cls-23" points="305 407.4 295.6 420.3 308.6 418.1 305 407.4"/>
                  <path class="cls-21" d="M305.4,406.6l1.9,3.2,1.4,5.5.7,2.2-1.5,1.7-2.5.7-5,1-5.2.4-.7-1.1,1.6-2.7,3.1-4,5.4-7.1.8.2h0ZM304.8,407.8c-1.5,2.1-4.3,6.2-4.3,6.2l-2.6,3.1-1.6,2.5,4.9-.4,6.4-1.9-1.2-4s-1.6-5.2-1.7-5.6"/>
                  <polygon class="cls-23" points="324.7 431.4 329.2 443.3 339.6 429.9 338.2 428.5 324.7 431.4"/>
                  <path class="cls-21" d="M340.3,429.9l-1,1.9-6.4,8.4-1.6,2.1-1.7,2.2-1.2-1-1.6-3.1-2.7-7.8.6-1.9,6-1.8,4.5-.7,2.3-.3,3.2.6-.3,1.4h0ZM338.6,429.5l-1.4-.2-4.2.6-6.9,2,2.3,8.7.8,1.8,3.4-4.4,2.4-3.8,3.5-4.7h.1Z"/>
                  <polygon class="cls-23" points="338.8 359.5 329.4 372.5 342.4 370.3 338.8 359.5"/>
                  <path class="cls-21" d="M339.2,358.8l1.9,3.2,1.4,5.5.7,2.2-1.5,1.7-2.5.7-5,1-5.2.4-.7-1.1,1.6-2.7,3.1-4,5.4-7.1.8.2h0ZM338.6,360c-1.5,2.1-4.3,6.2-4.3,6.2l-2.6,3.1-1.6,2.5,4.9-.4,6.4-1.9-1.2-4s-1.6-5.2-1.7-5.6"/>
                  <polygon class="cls-23" points="358.5 383.6 363 395.5 373.4 382 372 380.7 358.5 383.6"/>
                  <path class="cls-21" d="M374.1,382.1l-1,1.9-6.4,8.4-1.6,2.1-1.7,2.2-1.2-1-1.6-3.1-2.7-7.8.6-1.9,6-1.8,4.5-.7,2.3-.3,3.2.6-.3,1.4h0ZM372.5,381.7l-1.4-.2-4.2.6-6.9,2,2.3,8.7.8,1.8,3.4-4.4,2.4-3.8,3.5-4.7h.1Z"/>
                  <polygon class="cls-23" points="338.2 391.8 336.2 394.4 334.3 397.3 332.9 393.6 331 390.9 330.3 390.5 329.6 391.7 332 398.4 328.4 398 324.7 398.4 323.9 399.4 324.7 400.3 331.7 401.3 328.4 407.6 329.3 409.4 331.7 408.6 334.1 403.7 334.8 406 336.3 408.8 338.3 409.8 339.4 407.7 336.6 402 342.6 402.7 344.4 401.4 343.1 399.5 340.3 398.9 336.8 398.7 339.8 392.7 339.4 391.6 338.2 391.8"/>
                  <polygon class="cls-21" points="350.8 394.4 349.7 396.1 348.2 395.3 344.1 388.8 335.1 385.7 334.9 384.1 341.9 382.4 347 382 350.8 394.4"/>
                  <polygon class="cls-21" points="333.3 414.6 326.1 412.6 321.7 406.7 320.5 405.9 319.6 407.3 321.1 417.2 321.7 419.4 328.2 418 333.9 417.4 334.9 415.7 333.3 414.6"/>
                  <path class="cls-21" d="M329.1,387.2l.5-1.5s-1.5-.5-1.8-.5c-2.4.5-10.5,2.4-10.5,2.4v4.2c.1,0,.4,6.1.4,6.1l2.3.6,1.3-3.1,1.9-3.7,2.9-2.3,3.1-2.2h0Z"/>
                  <polygon class="cls-21" points="349.8 401.3 349.6 405.3 347.7 408.7 340.9 413.6 340.4 414.7 341.5 415.5 347.5 414 352.8 412.6 353 408.5 351.7 400.6 349.8 401.3"/>
                  <path class="cls-23" d="M375.8,351.3s-3.7.5-6.4,5.4c-1.4,2.5-1.2,5.8,0,8.4,1.1,2.3,3.1,4.1,5.6,4.6,1.2.2,2.5,0,3.8-.3,2.2-.7,4.2-2,5.6-3.8s2.1-4.2,1.9-6.5c-.3-2.6-1.9-5-4.1-6.4-2.3-1.3-6.3-1.3-6.3-1.3"/>
                  <polygon class="cls-21" points="357.7 338.4 356.7 334.6 355.5 334.4 346.3 347.3 345.8 349.4 349.1 348.9 351.3 347.7 355 342.2 357.7 338.4"/>
                  <path class="cls-21" d="M345.9,350.3l-.4.3.8,1.7c7.4,9.2,4.7,2.8,15.7,9.3l2.3,2.1.7-.6-.7-2.6v-1.9l-.7-.6-7.1-2.4-4.8-2.8-5.8-2.6h0Z"/>
                  <polygon class="cls-21" points="360.4 333.9 358.1 333.2 357.6 333.8 366.4 342.9 369.6 347.4 371.5 348.7 373.8 348.3 376.8 348.1 377.1 347.3 371.5 343.1 368.1 339.3 365.8 336.1 360.4 333.9"/>
                  <path class="cls-21" d="M377,356.4s-1.2,1.6-1.3,1.8c-.5-.1-1.4-.4-1.4-.4l-.8.3v.9l1.1,1.1c-.4.7-1,2.2-1,2.2l1,1s1.2-.6,1.9-.9c.2.2,1.3,2,1.3,2h1.1l.2-.6-.3-2.2,1.7-.4.6-.7-.3-.6-1.6-.6-.8-.2-.4-2.4-.5-.4-.6.3v-.2h0Z"/>
                  <path class="cls-21" d="M376.3,350.5l4.6.7,4.9,3.4,2,4.1-2.1,7.5-8.1,5.4-6.8-3-3.1-3.8v-5.7c-.1,0,1.2-3.7,1.2-3.7l2.5-2.8,4.7-2h.2,0ZM382.6,354.7l-4.7-2.4-5.5,1.6-2.8,4.3.3,5.8,4.2,4.3,4.5.2,5.2-4.2,1.4-5.1-2.5-4.5h-.1Z"/>
                  <polygon class="cls-23" points="371.5 313.3 362.1 326.2 375.1 324 371.5 313.3"/>
                  <path class="cls-21" d="M371.9,312.5l1.9,3.2,1.4,5.5.7,2.2-1.5,1.7-2.5.7-5,1-5.2.4-.7-1.1,1.6-2.7,3.1-4,5.4-7.1.8.2h0ZM371.3,313.7c-1.5,2.1-4.3,6.2-4.3,6.2l-2.6,3.1-1.6,2.5,4.9-.4,6.4-1.9-1.2-4s-1.6-5.2-1.7-5.6"/>
                  <polygon class="cls-23" points="391.2 337.3 395.7 349.2 406.1 335.8 404.7 334.4 391.2 337.3"/>
                  <path class="cls-21" d="M406.8,335.8l-1,1.9-6.4,8.4-1.6,2.1-1.7,2.2-1.2-1-1.6-3.1-2.7-7.8.6-1.9,6-1.8,4.5-.7,2.3-.3,3.2.6-.3,1.4h0ZM405.2,335.4l-1.4-.2-4.2.6-6.9,2,2.3,8.7.8,1.8,3.4-4.4,2.4-3.8,3.5-4.7h.1Z"/>
                  <polygon class="cls-23" points="405.3 265.5 395.9 278.4 408.9 276.2 405.3 265.5"/>
                  <path class="cls-21" d="M405.7,264.7l1.9,3.2,1.4,5.5.7,2.2-1.5,1.7-2.5.7-5,1-5.2.4-.7-1.1,1.6-2.7,3.1-4,5.4-7.1.8.2h0ZM405.1,265.9c-1.5,2.1-4.3,6.2-4.3,6.2l-2.6,3.1-1.6,2.5,4.9-.4,6.4-1.9-1.2-4s-1.6-5.2-1.7-5.6"/>
                  <polygon class="cls-23" points="425 289.5 429.5 301.4 440 288 438.5 286.6 425 289.5"/>
                  <path class="cls-21" d="M440.6,288l-1,1.9-6.4,8.4-1.6,2.1-1.7,2.2-1.2-1-1.6-3.1-2.7-7.8.6-1.9,6-1.8,4.5-.7,2.3-.3,3.2.6-.3,1.4h0ZM439,287.6l-1.4-.2-4.2.6-6.9,2,2.3,8.7.8,1.8,3.4-4.4,2.4-3.8,3.5-4.7h.1Z"/>
                  <polygon class="cls-23" points="404.7 297.7 402.8 300.3 400.8 303.2 399.4 299.5 397.6 296.9 396.8 296.5 396.1 297.7 398.5 304.3 394.9 303.9 391.3 304.3 390.4 305.3 391.2 306.2 398.3 307.3 394.9 313.5 395.9 315.4 398.3 314.5 400.7 309.6 401.3 311.9 402.8 314.8 404.9 315.7 405.9 313.6 403.1 307.9 409.2 308.7 411 307.3 409.7 305.5 406.8 304.8 403.3 304.7 406.3 298.7 405.9 297.5 404.7 297.7"/>
                  <polygon class="cls-21" points="417.3 300.3 416.2 302.1 414.7 301.3 410.6 294.8 401.6 291.6 401.5 290 408.5 288.3 413.5 287.9 417.3 300.3"/>
                  <polygon class="cls-21" points="399.8 320.5 392.7 318.5 388.3 312.6 387 311.9 386.1 313.2 387.7 323.1 388.3 325.3 394.8 323.9 400.4 323.3 401.4 321.6 399.8 320.5"/>
                  <path class="cls-21" d="M395.6,293.1l.5-1.5s-1.5-.5-1.8-.5c-2.4.5-10.5,2.4-10.5,2.4v4.2c.1,0,.4,6.1.4,6.1l2.3.6,1.3-3.1,1.9-3.7,2.9-2.3,3.1-2.2h0Z"/>
                  <polygon class="cls-21" points="416.3 307.2 416.1 311.2 414.2 314.6 407.4 319.5 407 320.6 408 321.4 414 319.9 419.3 318.5 419.5 314.4 418.3 306.5 416.3 307.2"/>
                  <path class="cls-23" d="M442.3,257.2s-3.7.5-6.4,5.4c-1.4,2.5-1.2,5.8,0,8.4,1.1,2.3,3.1,4.1,5.6,4.6,1.2.2,2.5,0,3.8-.3,2.2-.7,4.2-2,5.6-3.8s2.1-4.2,1.9-6.5c-.3-2.6-1.9-5-4.1-6.4-2.3-1.3-6.3-1.3-6.3-1.3"/>
                  <polygon class="cls-21" points="424.3 244.3 423.2 240.5 422 240.3 412.8 253.2 412.4 255.3 415.6 254.8 417.8 253.6 421.5 248.2 424.3 244.3"/>
                  <path class="cls-21" d="M412.4,256.2l-.4.3.8,1.7c7.4,9.2,4.7,2.8,15.7,9.3l2.3,2.1.7-.6-.7-2.6v-1.9l-.7-.6-7.1-2.4-4.8-2.8-5.8-2.6h0Z"/>
                  <path class="cls-21" d="M443.5,262.4s-1.2,1.6-1.3,1.8c-.5-.1-1.4-.4-1.4-.4l-.8.3v.9l1.1,1.1c-.4.7-1,2.2-1,2.2l1,1s1.2-.6,1.9-.9c.2.2,1.3,2,1.3,2h1.1l.2-.6-.3-2.2,1.7-.4.6-.7-.3-.6-1.6-.6-.8-.2-.4-2.4-.5-.4-.6.3v-.2h0Z"/>
                  <path class="cls-21" d="M442.8,256.5l4.6.7,4.9,3.4,2,4.1-2.1,7.5-8.1,5.4-6.8-3-3.1-3.8v-5.7c-.1,0,1.2-3.7,1.2-3.7l2.5-2.8,4.7-2h.2,0ZM449.2,260.6l-4.7-2.4-5.5,1.6-2.8,4.3.3,5.8,4.2,4.3,4.5.2,5.2-4.2,1.4-5.1-2.5-4.5h-.1Z"/>
                </g>
              </g>
              <polygon class="cls-22" points="504.9 286.6 311.9 599 369.1 634.3 554.7 333.8 504.9 286.6"/>
              <polygon class="cls-23" points="363.5 569.6 356.2 584 357.2 585.6 359.3 586 363.2 581.2 368.2 572.4 366.5 571 363.5 569.6"/>
              <polygon class="cls-23" points="370 574.4 367.3 579.9 363.3 586.8 367.3 587.7 371.1 582.9 373.6 578 370 574.4"/>
              <path class="cls-21" d="M365.2,568.6l5.1,4.9,4.6,4.4-1.8,4.6-4.7,6.6-1,.2-10.3-2.9-2-1.2v-1.6c.1,0,5.5-9.5,5.5-9.5l3.3-5.2,1.5-.4h-.2ZM365.3,570.6c-2.5,4.6-5.6,8.9-8.5,13.3,3.4,1.2,10.4,3.3,10.4,3.3l4-5.4,1.5-3.1-1.2-2.5s-4.2-3.5-6.3-5.7"/>
              <polygon class="cls-23" points="353.2 596.6 363.1 618.2 376.9 595.1 353.2 596.6"/>
              <path class="cls-21" d="M378.3,594.5l-.9,2.4-5.3,7.4-8.8,15.2-1.5-.3-4-11.5-4.6-10-9.1,3.2-1.9-1.2.5-1.3,9.5-2.2-2.1-4.8-1.4-3.7.9-1.2,2.1,1.6,1.8,7.3h12.2l11.5-1.4.9.5h.2,0ZM368.6,606.8l7-10.7-10,.8-11,.3,4.7,9.1,3.4,10.5,5.9-10.1h0Z"/>
              <polygon class="cls-21" points="343.7 589.9 343.3 591.4 336.8 593.2 335.9 594.8 337 595.6 342.3 594 346.4 592.8 345.2 590 344.5 584.7 342.8 584 342.1 585.4 343.7 589.9"/>
              <polygon class="cls-21" points="335.1 584.6 333.1 585.5 333.8 587.1 339.3 589.9 340.4 589.4 340.2 588 335.1 584.6"/>
              <path class="cls-21" d="M395.3,543l5.5,9.4-1.2,2.8-4.3,5.3-2.4,1.7-3.3-.3-3.6-.5-4.4-.5-1.2,1.5-1.1,2.4-2.1,5.2-1.8.8-6-7.1-1.4-2.9,6.8-9.4,6.3-11.4,3.8-.4,8.9.5,1.5,2.7v.2h0ZM387.5,541.8l-4.4.5c-.1,0-13.1,19.8-13.1,19.8l1.5,1.4,4,5.7,2.4-5.1,1.1-2.5,1.7-2.6,3.9.7,7.2.8,2.7-2.1,4.1-5.4s-1.8-3.2-2.4-4.2c-1.1-1.9-3.6-6.2-3.6-6.2l-5.3-.8h.2,0Z"/>
              <polygon class="cls-23" points="384.7 545.1 383.1 545.8 382.2 549.9 381.2 553.8 382.7 555.6 391 557.9 394.5 554 395.1 550.3 391.5 545.1 384.7 545.1"/>
              <polygon class="cls-23" points="408.2 497.3 400.9 511.7 401.8 513.2 403.9 513.7 407.9 508.9 412.9 500.1 411.2 498.7 408.2 497.3"/>
              <polygon class="cls-23" points="414.7 502.1 412 507.6 407.9 514.5 412 515.4 415.8 510.6 418.3 505.7 414.7 502.1"/>
              <path class="cls-21" d="M409.9,496.3l5.1,4.9,4.6,4.4-1.8,4.6-4.7,6.6-1,.2-10.3-2.9-2-1.2v-1.6c.1,0,5.5-9.5,5.5-9.5l3.3-5.2,1.5-.4h-.2ZM409.9,498.3c-2.5,4.6-5.6,8.9-8.5,13.3,3.4,1.2,10.4,3.3,10.4,3.3l4-5.4,1.5-3.1-1.2-2.5s-4.2-3.5-6.3-5.7"/>
              <polygon class="cls-23" points="397.9 524.3 407.7 545.9 421.5 522.8 397.9 524.3"/>
              <path class="cls-21" d="M423,522.2l-.9,2.4-5.3,7.4-8.8,15.2-1.5-.3-4-11.5-4.6-10-9.1,3.2-1.9-1.2.5-1.3,9.5-2.2-2.1-4.8-1.4-3.7.9-1.2,2.1,1.6,1.8,7.3h12.2l11.5-1.4.9.5h.2,0ZM413.2,534.5l7-10.7-10,.8-11,.3,4.7,9.1,3.4,10.5,5.9-10.1h0Z"/>
              <polygon class="cls-21" points="388.3 517.5 388 519.1 381.5 520.9 380.6 522.5 381.7 523.2 387 521.7 391.1 520.5 389.9 517.7 389.2 512.4 387.5 511.7 386.8 513.1 388.3 517.5"/>
              <polygon class="cls-21" points="379.7 512.3 377.7 513.2 378.5 514.8 384 517.5 385.1 517.1 384.9 515.7 379.7 512.3"/>
              <path class="cls-21" d="M419.8,498.4l-4.5-7.7-1.4-3.6,7.4-10.7,5.4-10.3h3.2l9,2.2v2l-3.6,4.2-1.7,2.1-.8,1.7,2.5,3.7,2,3,1.7,2.8-.5,2.9-2.8,6.2-2,2.3-10.9-.7h-3ZM421.3,496.5s5,.3,7.1.4c1.1,0,4.8.3,4.8.3l3-6.1.6-3.4-4-6.1-2.4-3.2,1.6-2.7,1.8-2.1,3.5-4.4-6.9-1.1-1.9-.7s-11.8,20.4-11.8,20.6l1.6,4.1,3.1,4.4h-.1Z"/>
              <polygon class="cls-23" points="419.9 488.1 419.8 486.3 423.1 483.7 426.2 481.1 428.4 481.7 434.1 488 432.2 492.9 429.2 495.1 423 494.2 419.9 488.1"/>
              <polygon class="cls-21" points="370.6 532.9 357.5 553.4 356 553.7 355.7 552.2 368 531.8 370 530.8 370.6 532.9"/>
              <polygon class="cls-21" points="364 557.5 370.7 546.4 376.8 536 376 534.3 374.8 534.9 368.4 545.3 361.8 555.8 361.6 557.5 364 557.5"/>
              <polygon class="cls-21" points="402.7 481 415.1 460.1 414.8 458.6 413.3 459 400.5 479.2 400.6 481.4 402.7 481"/>
              <polygon class="cls-21" points="421.7 464 414.8 475 408.2 485.1 406.3 485.2 406.3 483.9 412.8 473.4 419.2 462.9 420.6 461.9 421.7 464"/>
              <polygon class="cls-23" points="455.9 420 448.6 434.5 449.6 436 451.6 436.5 455.6 431.7 460.6 422.9 458.9 421.5 455.9 420"/>
              <polygon class="cls-23" points="462.4 424.8 459.7 430.3 455.7 437.3 459.7 438.1 463.5 433.4 466 428.5 462.4 424.8"/>
              <path class="cls-21" d="M457.6,419.1l5.1,4.9,4.6,4.4-1.8,4.6-4.7,6.6-1,.2-10.3-2.9-2-1.2v-1.6c.1,0,5.5-9.5,5.5-9.5l3.3-5.2,1.5-.4h-.2ZM457.6,421.1c-2.5,4.6-5.6,8.9-8.5,13.3,3.4,1.2,10.4,3.3,10.4,3.3l4-5.4,1.5-3.1-1.2-2.5s-4.2-3.5-6.3-5.7"/>
              <polygon class="cls-23" points="445.6 447 455.4 468.6 469.2 445.6 445.6 447"/>
              <path class="cls-21" d="M470.7,444.9l-.9,2.4-5.3,7.4-8.8,15.2-1.5-.3-4-11.5-4.6-10-9.1,3.2-1.9-1.2.5-1.3,9.5-2.2-2.1-4.8-1.4-3.7.9-1.2,2.1,1.6,1.8,7.3h12.2l11.5-1.4.9.5h.2,0ZM460.9,457.2l7-10.7-10,.8-11,.3,4.7,9.1,3.4,10.5,5.9-10.1h0Z"/>
              <polygon class="cls-21" points="436 440.3 435.7 441.9 429.2 443.6 428.3 445.2 429.4 446 434.7 444.4 438.8 443.3 437.6 440.4 436.9 435.2 435.2 434.4 434.5 435.8 436 440.3"/>
              <polygon class="cls-21" points="427.4 435.1 425.4 436 426.2 437.5 431.7 440.3 432.8 439.8 432.6 438.5 427.4 435.1"/>
              <path class="cls-21" d="M487.7,393.5l5.5,9.4-1.2,2.8-4.3,5.3-2.4,1.7-3.3-.3-3.6-.5-4.4-.5-1.2,1.5-1.1,2.4-2.1,5.2-1.8.8-6-7.1-1.4-2.9,6.8-9.4,6.3-11.4,3.8-.4,8.9.5,1.5,2.7v.2h0ZM479.9,392.3l-4.4.5c-.1.1-13.1,19.8-13.1,19.8l1.5,1.4,4,5.7,2.4-5.1,1.1-2.5,1.7-2.6,3.9.7,7.2.8,2.7-2.1,4.1-5.4s-1.8-3.2-2.4-4.2c-1.1-1.9-3.6-6.2-3.6-6.2l-5.3-.8h.2,0Z"/>
              <polygon class="cls-23" points="477.1 395.6 475.4 396.3 474.6 400.4 473.6 404.3 475.1 406 483.3 408.3 486.9 404.4 487.5 400.8 483.9 395.6 477.1 395.6"/>
              <polygon class="cls-23" points="500.6 347.7 493.3 362.2 494.2 363.7 496.3 364.2 500.3 359.3 505.3 350.5 503.5 349.2 500.6 347.7"/>
              <polygon class="cls-23" points="507.1 352.5 504.4 358 500.3 365 504.3 365.8 508.2 361.1 510.7 356.1 507.1 352.5"/>
              <path class="cls-21" d="M502.2,346.7l5.1,4.9,4.6,4.4-1.8,4.6-4.7,6.6-1,.2-10.3-2.9-2-1.2v-1.6c.1,0,5.5-9.5,5.5-9.5l3.3-5.2,1.5-.4h-.2ZM502.3,348.7c-2.5,4.6-5.6,8.9-8.5,13.3,3.4,1.2,10.4,3.3,10.4,3.3l4-5.4,1.5-3.1-1.1-2.5s-4.2-3.5-6.3-5.7"/>
              <polygon class="cls-23" points="490.2 374.7 500.1 396.3 513.9 373.3 490.2 374.7"/>
              <path class="cls-21" d="M515.3,372.6l-.9,2.4-5.3,7.4-8.8,15.2-1.5-.3-4-11.5-4.6-10-9.1,3.2-1.9-1.2.5-1.3,9.5-2.2-2.1-4.8-1.4-3.7.9-1.2,2.1,1.6,1.8,7.3h12.2l11.5-1.4.9.5h.2ZM505.6,384.9l7-10.7-10,.8-11,.3,4.7,9.1,3.4,10.5,5.9-10.1h0Z"/>
              <polygon class="cls-21" points="480.7 368 480.4 369.6 473.9 371.3 473 372.9 474.1 373.7 479.4 372.1 483.5 370.9 482.3 368.1 481.6 362.8 479.8 362.1 479.2 363.5 480.7 368"/>
              <polygon class="cls-21" points="472.1 362.7 470.1 363.7 470.9 365.2 476.3 368 477.5 367.5 477.2 366.2 472.1 362.7"/>
              <path class="cls-21" d="M512.1,348.9l-4.5-7.7-1.4-3.6,7.4-10.7,5.4-10.3h3.2l9,2.2v2l-3.6,4.2-1.7,2.1-.8,1.7,2.5,3.7,2,3,1.7,2.8-.5,2.9-2.8,6.2-2,2.3-10.9-.7h-3ZM513.7,346.9s5,.3,7.1.4c1.1,0,4.8.3,4.8.3l3-6.1.6-3.4-4-6.1-2.4-3.2,1.6-2.7,1.8-2.1,3.5-4.4-6.9-1.1-1.9-.7s-11.8,20.4-11.8,20.6l1.6,4.1,3.1,4.4h0Z"/>
              <polygon class="cls-23" points="512.3 338.5 512.2 336.8 515.5 334.2 518.5 331.5 520.8 332.1 526.5 338.5 524.6 343.3 521.6 345.5 515.3 344.7 512.3 338.5"/>
              <polygon class="cls-21" points="463 383.3 449.9 403.8 448.4 404.2 448.1 402.6 460.4 382.2 462.4 381.3 463 383.3"/>
              <polygon class="cls-21" points="456.4 408 463.1 396.9 469.2 386.4 468.4 384.7 467.2 385.3 460.8 395.7 454.2 406.2 454 407.9 456.4 408"/>
              <polygon class="cls-21" points="495.1 331.4 507.5 310.6 507.2 309 505.6 309.4 492.9 329.6 493 331.8 495.1 331.4"/>
              <polygon class="cls-21" points="514.1 314.5 507.2 325.5 500.6 335.6 498.7 335.6 498.7 334.3 505.1 323.9 511.6 313.3 513 312.4 514.1 314.5"/>
              <polygon class="cls-26" points="636.4 680.6 643.6 400.8 580.5 341 571 709.8 636.4 680.6"/>
              <g class="cls-20">
                <g>
                  <polygon class="cls-21" points="613.5 687.7 625.3 689.2 627.1 687.3 625.5 684.7 614.7 685.2 579.1 684 578.3 684.5 579.8 687 613.5 687.7"/>
                  <polygon class="cls-21" points="601.3 695.2 578.9 693.2 577 695.6 579.4 698 602.4 697.7 625 697.9 626.9 697.1 624.9 695.8 601.3 695.2"/>
                  <path class="cls-23" d="M614,635.5l-21.5-.8s-4,6.6-4.1,14.7c-2,.3-3.6.8-4.3,1.6,0,0-2.7,7.2-1.2,14.5l20.8-.3s-2-9.6,1.4-15.4l5.1-.3s1.5-8.5,3.9-14"/>
                  <polygon class="cls-23" points="602.3 671 579.8 669 577.9 671.4 580.4 673.9 603.4 673.6 626 673.7 627.9 672.9 625.9 671.6 602.3 671"/>
                  <path class="cls-21" d="M614.9,635.1l-2.8,7.7-1.3,7.3-5.1,1.5-1.6,5.1-.3,11.3-10.9-1.3h-11.1l.9-17.4,3.5-.7,3.4-13.9,25.2.6v-.2h0ZM608.2,648.9l1.5-8.3,1.5-3.3-8,.9-11.5-1.3-3,13.3-3.7,1-.5,2.4v10l8.4,1.4,8.7.2.4-9.9,1.9-5.3,4.3-1.1h0Z"/>
                  <path class="cls-21" d="M600,572.3s-2.9-1.2-4-1.8c-2.3-1.4-6.2-5-6.2-5l-4.8-5.7-.8-7.4,1.5-1.8,4.7,1s4.6,3.3,6.7,6.1c1.6,2,5.1,8.3,5.1,8.3l.2,4.4-2.5,1.9h0ZM595.3,567.6l4.6,1.5-1.5-3.8-.5-3.3-6.3-5.7-5.1-2.5.5,3.7,4.3,5.7,4,4.5h0Z"/>
                  <path class="cls-21" d="M598.3,591.5l-6.3,6.7-6.7,2.1-3.3-2.1,1-5.3,4.3-5.4,11.5-5.8,3.2,3.8-3.7,6ZM590.2,595.4l5.5-5.4,2.4-4.8-7,3.1-4,3.7-2.1,3.9,5.2-.5h0Z"/>
                  <path class="cls-21" d="M619.6,584.6l7.2,6.2,3,9.1-4,4.6-6.9-4.9-8.5-8.3-.2-6.7,2.9-1.9,6.4,1.9h0ZM617.9,586.6l-5.3-.7v3.2l5.7,7.3,6.7,4.4,2.4-2.1-5.5-8.3-4.1-3.7h0Z"/>
                  <path class="cls-21" d="M627.5,553l4.2,3.5-2.9,6.5-2.3,2.4-10.7,6.9h-2.2l-3-2.7,1.9-6.6,9.5-7.7,5.5-2.4h0ZM627.5,558.9l-1.1-3.1-8.2,5-3.8,6.3.5,2.4,4.6-1.9,3.9-2.9,4.2-5.7h-.1Z"/>
                  <path class="cls-23" d="M612,603l-10.2.3-6.4-1.5v-3.5l5.1-5.2,4.3-3.4,2.7,2.5,2.2,3.4,3.7,4.4-1.4,3h0ZM610.3,600.7h0"/>
                  <polygon class="cls-23" points="627 569.6 623 573.8 619.1 578.3 622.2 582.3 626.5 586.5 630.8 587.7 632.4 582.7 632.5 575.2 631.2 568.2 627 569.6"/>
                  <path class="cls-23" d="M599.3,551.6c-1.4.4-1.2,2.1-.2,2.8,1.8,1.5,3.2,3.2,4.6,5,.8,1.1,1.6,3.3,3,3.7,1.5.5,2.3-1.2,3-2.2,1.5-2,3.1-3.4,5.1-4.9,3.6-2.7-.2-4.8-3.2-5.6-4.2-1.1-8.3,0-12.3,1.2"/>
                  <polygon class="cls-23" points="590.7 579.7 593.3 575.8 590.6 572.3 583.8 567.3 582.7 568.6 581.6 572.5 581.2 580.8 582.8 584.7 586.3 583.8 590.7 579.7"/>
                  <polygon class="cls-21" points="616.3 617.4 628.1 618.8 629.9 616.9 628.3 614.4 617.5 614.8 581.9 613.6 581.1 614.2 582.6 616.6 616.3 617.4"/>
                  <polygon class="cls-21" points="604.2 624.8 581.7 622.8 579.8 625.2 582.2 627.7 605.2 627.4 627.8 627.5 629.7 626.7 627.7 625.4 604.2 624.8"/>
                  <polygon class="cls-21" points="619.8 529.1 631.7 530.5 633.4 528.6 631.8 526 621 526.5 585.4 525.3 584.6 525.9 586.2 528.3 619.8 529.1"/>
                  <polygon class="cls-21" points="607.7 536.5 585.2 534.5 583.3 536.9 585.7 539.4 608.7 539.1 631.3 539.2 633.2 538.4 631.2 537.1 607.7 536.5"/>
                  <path class="cls-23" d="M620.3,476.8l-21.5-.8s-4,6.6-4.1,14.7c-2,.3-3.6.8-4.3,1.6,0,0-2.7,7.2-1.2,14.5l20.8-.3s-2-9.6,1.4-15.4l5.1-.3s1.5-8.5,3.9-14"/>
                  <polygon class="cls-23" points="608.6 512.3 586.1 510.3 584.2 512.7 586.7 515.2 609.7 514.9 632.3 515 634.2 514.2 632.2 512.9 608.6 512.3"/>
                  <path class="cls-21" d="M621.2,476.4l-2.8,7.7-1.3,7.3-5.1,1.5-1.6,5.1-.3,11.3-10.9-1.3h-11.1c0-.1.9-17.4.9-17.4l3.6-.7,3.4-13.9,25.2.6v-.2h0ZM614.6,490.2l1.5-8.3,1.5-3.3-8,.9-11.5-1.3-3,13.3-3.7,1-.5,2.4v10l8.4,1.4,8.6.2.4-9.9,1.9-5.3,4.3-1.1h0Z"/>
                  <path class="cls-21" d="M606.3,413.6s-2.9-1.2-4-1.8c-2.3-1.4-6.2-5-6.2-5l-4.8-5.7-.8-7.4,1.5-1.8,4.7,1s4.6,3.3,6.7,6.1c1.6,2,5.1,8.3,5.1,8.3l.2,4.4-2.5,1.9h0ZM601.6,408.9l4.6,1.5-1.5-3.8-.5-3.3-6.3-5.7-5.1-2.5.5,3.7,4.3,5.7,4,4.5h0Z"/>
                  <path class="cls-21" d="M604.7,432.8l-6.3,6.7-6.7,2.1-3.3-2.1,1-5.3,4.3-5.4,11.5-5.8,3.2,3.8-3.7,6h0ZM596.6,436.7l5.5-5.4,2.4-4.8-7,3.1-4,3.7-2.1,3.9,5.2-.5h0Z"/>
                  <path class="cls-21" d="M625.9,425.9l7.2,6.2,3,9.1-4,4.6-6.9-4.9-8.5-8.3-.2-6.7,2.9-1.9,6.4,1.9h0ZM624.3,427.9l-5.3-.7v3.2l5.7,7.3,6.7,4.4,2.4-2.1-5.5-8.3-4.1-3.7h0Z"/>
                  <path class="cls-21" d="M633.8,394.3l4.2,3.5-2.9,6.5-2.3,2.4-10.7,6.9h-2.2l-3-2.7,1.9-6.6,9.5-7.7,5.5-2.4h0ZM633.9,400.2l-1.1-3.1-8.2,5-3.8,6.3.5,2.4,4.6-1.9,3.9-2.9,4.2-5.7h-.1Z"/>
                  <path class="cls-23" d="M618.3,444.3l-10.2.3-6.4-1.5v-3.5l5.1-5.2,4.3-3.4,2.7,2.5,2.2,3.4,3.7,4.4-1.4,3h0ZM616.6,442h0"/>
                  <polygon class="cls-23" points="633.3 410.9 629.3 415.1 625.5 419.6 628.5 423.6 632.8 427.8 637.1 429 638.7 424 638.9 416.6 637.5 409.5 633.3 410.9"/>
                  <path class="cls-23" d="M605.7,392.9c-1.4.4-1.2,2.1-.2,2.8,1.8,1.5,3.2,3.2,4.6,5,.8,1.1,1.6,3.3,3,3.7,1.5.5,2.3-1.2,3-2.2,1.5-2,3.1-3.4,5.1-4.9,3.6-2.7-.2-4.8-3.2-5.6-4.2-1.1-8.3,0-12.3,1.2"/>
                  <polygon class="cls-23" points="597 421 599.6 417.1 596.9 413.6 590.1 408.6 589 409.9 588 413.9 587.5 422.1 589.1 426 592.6 425.1 597 421"/>
                  <polygon class="cls-21" points="622.6 458.7 634.5 460.2 636.2 458.2 634.6 455.7 623.8 456.1 588.2 454.9 587.4 455.5 589 457.9 622.6 458.7"/>
                  <polygon class="cls-21" points="610.5 466.1 588 464.1 586.1 466.5 588.5 469 611.5 468.7 634.1 468.8 636 468 634.1 466.7 610.5 466.1"/>
                  <polygon class="cls-21" points="626.2 370.4 638 371.8 639.7 369.9 638.1 367.3 627.3 367.8 591.7 366.6 590.9 367.2 592.5 369.6 626.2 370.4"/>
                  <polygon class="cls-21" points="614 377.8 591.5 375.8 589.6 378.2 592 380.7 615.1 380.4 637.6 380.5 639.5 379.7 637.6 378.4 614 377.8"/>
                </g>
              </g>
              <polygon class="cls-8" points="414 229.9 261.5 447.2 314.3 484.3 461.4 274.8 414 229.9"/>
              <polygon class="cls-11" points="414 229.9 261.5 447.2 314.3 484.3 461.4 274.8 414 229.9"/>
              <polygon class="cls-10" points="249.7 249.4 206.1 314 230.4 373.9 295.8 293.1 249.7 249.4"/>
              <polygon class="cls-6" points="249.7 249.4 206.1 314 230.4 373.9 295.8 293.1 249.7 249.4"/>
              <polygon class="cls-13" points="636.4 680.6 643.6 400.8 580.5 341 571 709.8 636.4 680.6"/>
              <polygon class="cls-5" points="636.4 680.6 643.6 400.8 580.5 341 571 709.8 636.4 680.6"/>
              <polygon class="cls-4" points="504.9 286.6 311.9 599 369.1 634.3 554.7 333.8 504.9 286.6"/>
              <polygon class="cls-12" points="504.9 286.6 311.9 599 369.1 634.3 554.7 333.8 504.9 286.6"/>
            </g>
          </g>
        </g>
      </g>
    </g>
  </g>
</svg>