<?xml version="1.0" encoding="UTF-8"?>
<svg xmlns="http://www.w3.org/2000/svg" xmlns:xlink="http://www.w3.org/1999/xlink" viewBox="0 0 382.35 358.76">
  <defs>
    <style>
      .cls-1 {
        fill: url(#linear-gradient-15);
      }

      .cls-1, .cls-2, .cls-3, .cls-4, .cls-5, .cls-6, .cls-7, .cls-8, .cls-9, .cls-10, .cls-11, .cls-12, .cls-13, .cls-14, .cls-15, .cls-16, .cls-17, .cls-18, .cls-19, .cls-20, .cls-21, .cls-22, .cls-23, .cls-24 {
        stroke-width: 0px;
      }

      .cls-1, .cls-4 {
        opacity: .6;
      }

      .cls-1, .cls-5, .cls-6, .cls-7, .cls-8, .cls-23 {
        mix-blend-mode: overlay;
      }

      .cls-25 {
        clip-path: url(#clippath);
      }

      .cls-2 {
        fill: none;
      }

      .cls-3 {
        fill: url(#linear-gradient-12);
        opacity: .3;
      }

      .cls-3, .cls-4, .cls-9, .cls-10, .cls-22, .cls-24 {
        mix-blend-mode: multiply;
      }

      .cls-26 {
        clip-path: url(#clippath-1);
      }

      .cls-27 {
        clip-path: url(#clippath-2);
      }

      .cls-4 {
        fill: url(#linear-gradient-8);
      }

      .cls-5 {
        fill: url(#linear-gradient-7);
      }

      .cls-5, .cls-6, .cls-8, .cls-9, .cls-24 {
        opacity: .5;
      }

      .cls-6 {
        fill: url(#linear-gradient);
      }

      .cls-7 {
        fill: url(#linear-gradient-13);
      }

      .cls-7, .cls-22 {
        opacity: .4;
      }

      .cls-8 {
        fill: url(#linear-gradient-11);
      }

      .cls-28 {
        isolation: isolate;
      }

      .cls-9 {
        fill: url(#linear-gradient-6);
      }

      .cls-10 {
        fill: url(#linear-gradient-10);
        opacity: .8;
      }

      .cls-11 {
        fill: url(#linear-gradient-3);
      }

      .cls-11, .cls-12, .cls-13 {
        opacity: .35;
      }

      .cls-12 {
        fill: url(#linear-gradient-4);
      }

      .cls-13 {
        fill: url(#linear-gradient-2);
      }

      .cls-14 {
        fill: #55aa5c;
      }

      .cls-15 {
        fill: #2f3167;
      }

      .cls-16 {
        fill: #2e3569;
      }

      .cls-17 {
        fill: #a154a1;
      }

      .cls-18 {
        fill: #ffcb05;
      }

      .cls-19 {
        fill: #fff;
      }

      .cls-20 {
        fill: #ef4130;
      }

      .cls-21 {
        fill: #f7941d;
      }

      .cls-22 {
        fill: url(#linear-gradient-5);
      }

      .cls-23 {
        fill: url(#linear-gradient-9);
      }

      .cls-24 {
        fill: url(#linear-gradient-14);
      }
    </style>
    <linearGradient id="linear-gradient" x1="116.08" y1="229.39" x2="342.92" y2="229.39" gradientUnits="userSpaceOnUse">
      <stop offset=".7" stop-color="#fff" stop-opacity="0"/>
      <stop offset=".85" stop-color="#fff" stop-opacity=".2"/>
      <stop offset="1" stop-color="#fff"/>
    </linearGradient>
    <linearGradient id="linear-gradient-2" x1="-18.66" y1="155.88" x2="121.41" y2="-15.44" gradientUnits="userSpaceOnUse">
      <stop offset="0" stop-color="#0f1028"/>
      <stop offset=".14" stop-color="#1d274d"/>
      <stop offset=".3" stop-color="#2d3f74"/>
      <stop offset=".43" stop-color="#374e8d"/>
      <stop offset=".52" stop-color="#3b5496"/>
      <stop offset=".59" stop-color="#374e8d"/>
      <stop offset=".72" stop-color="#2d3f74"/>
      <stop offset=".87" stop-color="#1d274d"/>
      <stop offset="1" stop-color="#0f1028"/>
    </linearGradient>
    <clipPath id="clippath">
      <polygon class="cls-2" points="27.87 12.49 0 53.8 15.58 92.03 57.35 40.43 27.87 12.49"/>
    </clipPath>
    <linearGradient id="linear-gradient-3" x1="47.04" y1="204.93" x2="185.33" y2="35.79" xlink:href="#linear-gradient-2"/>
    <linearGradient id="linear-gradient-4" x1="118.02" y1="267.64" x2="258.03" y2="96.4" xlink:href="#linear-gradient-2"/>
    <linearGradient id="linear-gradient-5" x1="182.38" y1="309.12" x2="234.86" y2="231.49" gradientUnits="userSpaceOnUse">
      <stop offset="0" stop-color="#0e3a1d"/>
      <stop offset=".01" stop-color="#1a4428" stop-opacity=".95"/>
      <stop offset=".14" stop-color="#7f9687" stop-opacity=".53"/>
      <stop offset=".28" stop-color="#c6d1ca" stop-opacity=".23"/>
      <stop offset=".43" stop-color="#f1f3f2" stop-opacity=".06"/>
      <stop offset=".61" stop-color="#fff" stop-opacity="0"/>
    </linearGradient>
    <linearGradient id="linear-gradient-6" x1="154.23" y1="229.39" x2="327.84" y2="229.39" gradientUnits="userSpaceOnUse">
      <stop offset="0" stop-color="#fff" stop-opacity="0"/>
      <stop offset=".14" stop-color="#f2f4f3" stop-opacity=".05"/>
      <stop offset=".25" stop-color="#cad4ce" stop-opacity=".22"/>
      <stop offset=".35" stop-color="#879d8f" stop-opacity=".5"/>
      <stop offset=".44" stop-color="#295036" stop-opacity=".89"/>
      <stop offset=".46" stop-color="#0e3a1d"/>
      <stop offset=".47" stop-color="#1a4428" stop-opacity=".95"/>
      <stop offset=".59" stop-color="#7f9687" stop-opacity=".53"/>
      <stop offset=".71" stop-color="#c6d1ca" stop-opacity=".23"/>
      <stop offset=".84" stop-color="#f1f3f2" stop-opacity=".06"/>
      <stop offset="1" stop-color="#fff" stop-opacity="0"/>
    </linearGradient>
    <linearGradient id="linear-gradient-7" x1="145.28" y1="275.44" x2="319.67" y2="194.51" xlink:href="#linear-gradient"/>
    <clipPath id="clippath-1">
      <polygon class="cls-2" points="132.92 0 35.4 138.87 69.18 162.59 163.21 28.71 132.92 0"/>
    </clipPath>
    <linearGradient id="linear-gradient-8" x1="55.14" y1="147.99" x2="146.02" y2="15.85" gradientUnits="userSpaceOnUse">
      <stop offset="0" stop-color="#570d0e"/>
      <stop offset=".41" stop-color="#fff" stop-opacity="0"/>
    </linearGradient>
    <linearGradient id="linear-gradient-9" x1="55.14" y1="147.99" x2="146.02" y2="15.85" xlink:href="#linear-gradient"/>
    <linearGradient id="linear-gradient-10" x1="85.7" y1="247.14" x2="209.4" y2="47.7" gradientUnits="userSpaceOnUse">
      <stop offset="0" stop-color="#a154a1"/>
      <stop offset=".41" stop-color="#fff" stop-opacity="0"/>
    </linearGradient>
    <linearGradient id="linear-gradient-11" x1="87.72" y1="246.18" x2="203.51" y2="54.92" xlink:href="#linear-gradient"/>
    <clipPath id="clippath-2">
      <polygon class="cls-2" points="275.01 288.04 279.62 109.24 239.3 71.04 233.23 306.69 275.01 288.04"/>
    </clipPath>
    <linearGradient id="linear-gradient-12" x1="256.43" y1="301.25" x2="256.43" y2="90.73" gradientUnits="userSpaceOnUse">
      <stop offset="0" stop-color="#570d0e"/>
      <stop offset=".41" stop-color="#fff" stop-opacity="0"/>
    </linearGradient>
    <linearGradient id="linear-gradient-13" x1="256.43" y1="289.95" x2="256.43" y2="101.11" xlink:href="#linear-gradient"/>
    <linearGradient id="linear-gradient-14" x1="3.99" y1="78.46" x2="35.99" y2="35.37" gradientUnits="userSpaceOnUse">
      <stop offset="0" stop-color="#693f18"/>
      <stop offset=".47" stop-color="#fff" stop-opacity="0"/>
    </linearGradient>
    <linearGradient id="linear-gradient-15" x1="2.16" y1="75.85" x2="41.36" y2="28.58" gradientUnits="userSpaceOnUse">
      <stop offset=".5" stop-color="#fff" stop-opacity="0"/>
      <stop offset=".8" stop-color="#fff" stop-opacity=".2"/>
      <stop offset="1" stop-color="#fff"/>
    </linearGradient>
  </defs>
  <g class="cls-28">
    <g id="Layer_2" data-name="Layer 2">
      <g id="Colored_Logo" data-name="Colored Logo">
        <g>
          <g>
            <g>
              <path class="cls-16" d="m97.4,327.76l4.43,4.43v4.43h-15.5v2.21h11.07l4.43,4.43v11.07l-4.43,4.43h-15.5l-4.43-4.43v-4.43h15.5v-2.21h-11.07l-4.43-4.43v-11.07l4.43-4.43h15.5Z"/>
              <path class="cls-16" d="m123.97,327.76l4.43,4.43v26.57h-8.86v-6.64h-6.64v6.64h-8.86v-26.57l4.43-4.43h15.5Zm-4.43,15.5v-6.64h-6.64v6.64h6.64Z"/>
              <path class="cls-16" d="m146.12,349.9v-22.14h8.86v26.57l-4.43,4.43h-15.5l-4.43-4.43v-26.57h8.86v22.14h6.64Z"/>
              <path class="cls-16" d="m177.12,327.76l4.43,4.43v22.14l-4.43,4.43h-19.93v-31h19.93Zm-4.43,22.14v-13.29h-6.64v13.29h6.64Z"/>
              <path class="cls-16" d="m192.62,358.76h-8.86v-31h8.86v31Z"/>
              <path class="cls-16" d="m201.48,336.61v-4.43l4.43-4.43h15.5l4.43,4.43v11.07l-4.43,4.43h-11.07v2.21h15.5v8.86h-24.36v-15.5l4.43-4.43h11.07v-2.21h-15.5Z"/>
              <path class="cls-16" d="m247.98,327.76l4.43,4.43v22.14l-4.43,4.43h-15.5l-4.43-4.43v-22.14l4.43-4.43h15.5Zm-4.43,22.14v-13.29h-6.64v13.29h6.64Z"/>
              <path class="cls-16" d="m254.62,336.61v-8.86h19.93l4.43,4.43v8.86l-2.21,2.21,2.21,2.21v8.86l-4.43,4.43h-19.93v-8.86h15.5v-2.21h-13.29v-8.86h13.29v-2.21h-15.5Z"/>
              <path class="cls-16" d="m294.48,341.04v-13.29h8.86v13.29h2.21v8.86h-2.21v8.86h-8.86v-8.86h-8.86l-4.43-4.43v-17.71h8.86v13.29h4.43Z"/>
            </g>
            <g>
              <polygon class="cls-14" points="318.96 210.87 318.93 210.79 275.78 228.61 275.78 224.34 311.2 209.28 315.65 204.34 313.91 200.91 307.07 200.63 275.78 217.99 275.78 210.49 305.57 197.08 309.81 192.35 305.26 188.97 275.78 205.31 275.78 199.27 311.54 181.97 313.41 169.63 256.78 197.67 256.23 197.67 256.23 197.94 116.08 267.34 150.96 289.15 342.92 211.5 318.96 210.87"/>
              <g>
                <g>
                  <path class="cls-16" d="m182.9,254.2l8.38-11.08-.41-2.23-6.67,3.29-4.09,3.76-1.72-1.4-1.81-.61-.79,1.89.24,2.04-5.12.85-7.14,3.21,1.44,1.56,13.57.65.51,4.71,1.02.54,3.08-1.67,3.41-1.85-.2-1.21-3.71-2.44Z"/>
                  <g>
                    <g>
                      <polygon class="cls-19" points="171.6 265.62 168.74 258.96 167.99 258.57 167.53 259.33 170.28 266.3 172.81 273.08 174.44 273.65 174.9 272.14 173.3 269.16 171.6 265.62"/>
                      <polygon class="cls-19" points="177.2 263.97 174.05 258.24 173.19 257.98 172.85 258.99 175.74 264.92 178.03 270.7 179.97 271.5 180.57 269.55 177.2 263.97"/>
                      <g>
                        <polygon class="cls-19" points="194.98 254.77 191.73 248.28 191.88 247.47 192.8 247.59 196.35 254.19 199.9 260.51 199.28 262.12 197.82 261.5 196.59 258.35 194.98 254.77"/>
                        <polygon class="cls-19" points="190.1 257.98 187.76 251.88 188.11 251.05 189.11 251.44 191.77 257.48 194.71 262.96 194.07 264.95 192.19 264.16 190.1 257.98"/>
                      </g>
                    </g>
                    <polygon class="cls-19" points="185.41 261.37 184.42 261.19 183.81 262.08 184.88 264.97 186.06 267.81 187.92 267.63 188.42 266.48 186.94 263.87 185.41 261.37"/>
                  </g>
                  <polygon class="cls-19" points="168.5 249.49 169.72 249.27 170.44 247.9 169.72 246.57 167.89 246.47 167.04 247.96 167.46 249.15 168.5 249.49"/>
                  <polygon class="cls-19" points="183.02 242.92 183.66 241.85 183.1 240.41 181.62 240.09 180.35 241.4 180.91 243.01 182.08 243.48 183.02 242.92"/>
                </g>
                <g>
                  <g>
                    <g>
                      <path class="cls-16" d="m223.68,224.32l2.96,2.45,3.55.21,2.85-1.29,1.09-3.35-1.89-2.89-3.28.2-5.07,2.43-.22,2.23Z"/>
                      <path class="cls-16" d="m236.33,228.94l-2.65-.55-3.4,1.45-.7,1.9,2.13,3.57s2.09.39,2.66.15c.95-.4,2.79-1.43,2.79-1.43l.4-1.76-1.23-3.32Z"/>
                      <polygon class="cls-16" points="226.88 236.25 228.17 234.73 226.62 231.07 222.2 229.17 219.86 229.71 219.85 232.57 220.84 236.25 223.14 238.82 225.33 238.76 226.88 236.25"/>
                      <polygon class="cls-16" points="237.07 241.29 234.61 238.69 230.07 237.99 227.14 239.97 227.12 242.93 231.52 244 236.51 243.69 237.07 241.29"/>
                      <polygon class="cls-16" points="246.2 231.91 243.84 231.28 240.7 232.83 239.22 235.79 239.15 238.56 240.68 240.31 242.7 240.5 246.15 235.59 246.2 231.91"/>
                      <polygon class="cls-16" points="240.49 229.07 243.94 228.18 245.12 226.52 242.89 223.29 239.24 221 237.35 222.17 237.19 226.9 240.49 229.07"/>
                    </g>
                    <polygon class="cls-19" points="216.05 229.26 215.63 232.94 216.63 239.15 220.4 244.8 227.04 247.65 228.29 246.53 227.6 245.38 221.81 243.06 217.62 236.95 217.46 230.07 218.52 226.24 218.17 225.26 217.27 225.55 216.05 229.26"/>
                    <polygon class="cls-19" points="250.72 228.31 248.65 222.44 243.5 217.51 237.7 215.9 236.55 217.08 237.76 218.35 244.25 220.63 247.21 223.87 249.07 229.15 248.47 236.21 249.86 236.55 250.72 228.31"/>
                  </g>
                  <g>
                    <g>
                      <polygon class="cls-19" points="146.77 263.69 158.15 258.39 158.4 257.52 157.58 257.13 146.25 261.98 145.69 263.05 146.77 263.69"/>
                      <polygon class="cls-19" points="149.54 267.61 148.98 268.68 150.06 269.3 155.42 267.21 160.82 264.85 160.96 263.67 160.2 263.47 154.9 265.62 149.54 267.61"/>
                      <polygon class="cls-19" points="152.21 275.71 158.39 273.11 164.08 270.55 164.2 269.44 163.49 269.26 157.63 271.64 151.7 274.02 151.14 274.74 152.21 275.71"/>
                      <polygon class="cls-19" points="166.44 274.53 159.89 277.18 154.05 280.16 153.75 280.76 155.07 281.81 160.97 278.92 167.03 275.84 167.3 274.94 166.44 274.53"/>
                    </g>
                    <g>
                      <polygon class="cls-19" points="197.68 240.06 209.05 234.76 209.3 233.89 208.48 233.5 197.15 238.34 196.6 239.42 197.68 240.06"/>
                      <polygon class="cls-19" points="200.45 243.97 199.88 245.04 200.96 245.67 206.33 243.57 211.73 241.21 211.86 240.04 211.11 239.84 205.81 241.98 200.45 243.97"/>
                      <polygon class="cls-19" points="203.12 252.08 209.29 249.48 214.98 246.91 215.1 245.8 214.4 245.62 208.54 248 202.6 250.38 202.04 251.11 203.12 252.08"/>
                      <polygon class="cls-19" points="217.34 250.89 210.8 253.54 204.96 256.52 204.65 257.13 205.98 258.18 211.87 255.28 217.94 252.21 218.2 251.3 217.34 250.89"/>
                    </g>
                  </g>
                </g>
              </g>
              <path class="cls-16" d="m369.18,158.29l-25.43-2.88-23.23,11.07-2.9,23.21,9.01,16.19,33.72-1.1,18.12-7.6,3.88-21.93-13.17-16.96Zm-30.38,28.6l-1.74,3.52-2.89.34-3.36-3.11-1.77-4.74-.33-3.79,3.02-.99,6.08,1.97,2.5,4.65-1.52,2.16Zm-3.08-15.42v-3.31s7.15-4.27,7.15-4.27l4.81-.75,3.17,4-1.15,5.09-4.02,2.29-5.26.17-4.7-3.21Zm21.24,26.89l-7.3,1.13-6.62-.97-.37-4.36,4.04-3.31,6.77.41,3.99,3.49-.5,3.61Zm.18-14.87s-2.57,1.76-3.92,2.49c-.8.43-3.93.15-3.93.15l-3.62-4.96.77-2.89,4.81-2.59,3.97.45,2.26,4.71-.35,2.65Zm.81-11.39l-.41-6.99,2.62-1.97,5.69,2.87,3.73,4.45-1.51,2.6-4.97,1.79-5.14-2.74Zm10.32,21.09h-2.99s-2.49-2.37-2.49-2.37l-.28-4.09,1.77-4.57,4.41-2.71,3.56.6.43,5.42-4.41,7.71Z"/>
            </g>
            <polygon class="cls-6" points="318.96 210.87 318.93 210.79 275.78 228.61 275.78 224.34 311.2 209.28 315.65 204.34 313.91 200.91 307.07 200.63 275.78 217.99 275.78 210.49 305.57 197.08 309.81 192.35 305.26 188.97 275.78 205.31 275.78 199.27 311.54 181.97 313.41 169.63 256.78 197.67 256.23 197.67 256.23 197.94 116.08 267.34 150.96 289.15 342.92 211.5 318.96 210.87"/>
            <g>
              <polygon class="cls-16" points="50.07 33.53 57.35 40.43 15.58 92.03 89.22 62.22 132.92 0 50.07 33.53"/>
              <polygon class="cls-13" points="50.07 33.53 57.35 40.43 15.58 92.03 89.22 62.22 132.92 0 50.07 33.53"/>
            </g>
            <polygon class="cls-18" points="27.87 12.49 0 53.8 15.58 92.03 57.35 40.43 27.87 12.49"/>
            <polygon class="cls-2" points="27.87 12.49 0 53.8 15.58 92.03 57.35 40.43 27.87 12.49"/>
            <g class="cls-25">
              <g>
                <g>
                  <g>
                    <polygon class="cls-16" points="8.48 61.76 6.57 71.88 17.87 67.44 18.69 56.81 8.48 61.76"/>
                    <path class="cls-19" d="m18.63,56.1s-3.57,1.69-5.34,2.59c-1.16.59-3.99,1.72-3.99,1.72l-.89.77-1.4,4.6-1.04,5.35-.07.99,1.6.14,2.71-1.56,3.15-1,3.05-.91,1.87-1.56.64-4.46.74-6-1.04-.66Zm-1.13,5.54l-.08,2.46-.34,2.58-1.33.85-4.42,1.12-2.27.63-1.97.85.82-3.3,1.32-4.77.91-.7,1.84-.63,2.12-.94s2.55-1.5,3.9-2.02c-.25,1.28-.5,3.87-.5,3.87Z"/>
                  </g>
                  <g>
                    <g>
                      <g>
                        <polygon class="cls-16" points="10.64 47.96 9.34 54.25 16.45 51.46 16.97 44.78 10.64 47.96"/>
                        <path class="cls-19" d="m16.91,44.35s-2.25,1.06-3.36,1.63c-.73.37-2.51,1.08-2.51,1.08l-.56.48-.88,2.89-.65,3.37-.04.62,1.01.09,1.71-.98,1.98-.63,1.92-.57,1.17-.98.4-2.81.46-3.77-.65-.41Zm-.71,3.48l-.05,1.54-.21,1.62-.84.53-2.78.7-1.42.4-1.24.53.52-2.07.83-3,.57-.44,1.16-.4,1.33-.59s1.6-.94,2.45-1.27c-.16.8-.31,2.43-.31,2.43Z"/>
                      </g>
                      <g>
                        <polygon class="cls-16" points="-4.21 66.43 -5.51 72.72 1.59 69.92 2.11 63.25 -4.21 66.43"/>
                        <path class="cls-19" d="m2.05,62.82s-2.25,1.06-3.36,1.63c-.73.37-2.51,1.08-2.51,1.08l-.56.48-.88,2.89-.65,3.37-.04.62,1.01.09,1.71-.98,1.98-.63,1.92-.57,1.17-.98.4-2.81.46-3.77-.65-.41Zm-.71,3.48l-.05,1.54-.21,1.62-.84.53-2.78.7-1.42.4-1.24.53.52-2.07.83-3,.57-.44,1.16-.4,1.33-.59s1.6-.94,2.45-1.27c-.16.8-.31,2.43-.31,2.43Z"/>
                      </g>
                    </g>
                    <g>
                      <g>
                        <polygon class="cls-16" points="24.76 59.32 23.46 65.6 30.56 62.81 31.09 56.13 24.76 59.32"/>
                        <path class="cls-19" d="m31.03,55.7s-2.25,1.06-3.36,1.63c-.73.37-2.51,1.08-2.51,1.08l-.56.48-.88,2.89-.65,3.37-.04.62,1.01.09,1.71-.98,1.98-.63,1.92-.57,1.17-.98.4-2.81.46-3.77-.65-.41Zm-.71,3.48l-.05,1.54-.21,1.62-.84.53-2.78.7-1.42.4-1.24.53.52-2.07.83-3,.57-.44,1.16-.4,1.33-.59s1.6-.94,2.45-1.27c-.16.8-.31,2.43-.31,2.43Z"/>
                      </g>
                      <g>
                        <polygon class="cls-16" points="9.9 77.78 8.61 84.07 15.71 81.28 16.23 74.6 9.9 77.78"/>
                        <path class="cls-19" d="m16.17,74.17s-2.25,1.06-3.36,1.63c-.73.37-2.51,1.08-2.51,1.08l-.56.48-.88,2.89-.65,3.37-.04.62,1.01.09,1.71-.98,1.98-.63,1.92-.57,1.17-.98.4-2.81.46-3.77-.65-.41Zm-.71,3.48l-.05,1.54-.21,1.62-.84.53-2.78.7-1.42.4-1.24.53.52-2.07.83-3,.57-.44,1.16-.4,1.33-.59s1.6-.94,2.45-1.27c-.16.8-.31,2.43-.31,2.43Z"/>
                      </g>
                    </g>
                  </g>
                </g>
                <polygon class="cls-16" points="26.84 28.62 20.57 37.17 22.07 38.98 19.8 42.23 24.33 45.46 25.19 44.31 27.39 41.94 31.17 40.67 34.31 43.87 34.88 46.7 36.39 48.02 35.2 50.71 37.77 52.89 45.68 42.89 42.64 41.03 40.35 43.12 38.17 41.06 35.64 41.3 32.33 39.02 33.22 35.26 33.82 33.09 35.17 30.9 33.89 29.36 31.26 28.27 29.38 30.39 26.84 28.62"/>
                <path class="cls-19" d="m38.97,40.52s-1.61.23-2.23.33c-.19.03-1.54-.54-1.54-.54l-2.72-1.75-.41.74,4.06,2.69,2.29-.33,1.63,1.41-.29.83-3.11,3.46s-1.03-.93-1.15-1.02c.01-.31-.25-2.15-.25-2.15l-3.88-4.25-.64.6,3.32,4,.2,2.41,2.02,1.75,1.35-.78.76-.83,3.16-3.6-.1-.93-2.45-2.06Zm-2.89.33s0,0,0,0c0,0,0,0,0,0Zm2.54.74s-.03.04-.05.04c.03-.01.05-.03.05-.04Z"/>
                <g>
                  <path class="cls-19" d="m26.9,27.69l-1.77,1.64-5.64,7.69.29,1.69,6.75,4.08,4.29-1.11,2.13-2.13,1.14-2.75-.34-3.99-6.85-5.11Zm5.39,6.95l.27,2.59-1.06,2.02-1.44,1.4-2.97.63-2.21-.69-3.77-3.02,6.16-8.02,3.99,3.07,1.04,2.03Z"/>
                  <polygon class="cls-19" points="26.28 42.04 24.43 44.72 23.38 43.5 20.43 41.93 22.18 39.79 21.45 39.35 19.15 41.4 19.34 42.78 24.84 46.28 27.63 42.26 26.28 42.04"/>
                  <polygon class="cls-19" points="34.33 29.03 30.86 27.5 29.26 30.11 29.86 30.45 31.23 28.6 33.59 29.75 34.58 31.01 32.68 33.52 33.21 34.83 35.18 32.3 35.94 31.05 34.33 29.03"/>
                </g>
                <path class="cls-19" d="m46.25,42.51l-2.96-1.91-.81.08-1.49,1.75.52,1.06,1.5-1.66,2.08,1.39-6.04,7.19-1.3,1.8s-1.52-1.07-1.96-1.39c.75-1.08,2.14-3.3,2.14-3.3l-.74-.45-2.55,3.54.08.75,1.95,1.53,1.11.66.87-.57,1.66-1.95,3.42-4.74,2.93-3.01-.39-.77Z"/>
              </g>
            </g>
            <g>
              <polygon class="cls-15" points="129.36 76.91 69.18 162.59 69.18 162.59 140.53 117.94 190.97 36.28 129.36 76.91"/>
              <polygon class="cls-11" points="129.36 76.91 69.18 162.59 69.18 162.59 140.53 117.94 190.97 36.28 129.36 76.91"/>
            </g>
            <g>
              <polygon class="cls-16" points="186.05 232.69 237.27 149.89 239.3 71.04 116.08 267.34 116.08 267.34 186.05 232.69"/>
              <polygon class="cls-12" points="186.05 232.69 237.27 149.89 239.3 71.04 116.08 267.34 116.08 267.34 186.05 232.69"/>
            </g>
            <g>
              <polygon class="cls-22" points="318.96 210.87 318.93 210.79 275.78 228.61 275.78 224.34 311.2 209.28 315.65 204.34 313.91 200.91 307.07 200.63 275.78 217.99 275.78 210.49 305.57 197.08 309.81 192.35 305.26 188.97 275.78 205.31 275.78 199.27 311.54 181.97 313.41 169.63 116.08 267.34 150.96 289.15 342.92 211.5 318.96 210.87"/>
              <polygon class="cls-9" points="318.96 210.87 318.93 210.79 275.78 228.61 275.78 224.34 311.2 209.28 315.65 204.34 313.91 200.91 307.07 200.63 275.78 217.99 275.78 210.49 305.57 197.08 309.81 192.35 305.26 188.97 275.78 205.31 275.78 199.27 311.54 181.97 313.41 169.63 116.08 267.34 150.96 289.15 342.92 211.5 318.96 210.87"/>
              <polygon class="cls-5" points="318.96 210.87 318.93 210.79 275.78 228.61 275.78 224.34 311.2 209.28 315.65 204.34 313.91 200.91 307.07 200.63 275.78 217.99 275.78 210.49 305.57 197.08 309.81 192.35 305.26 188.97 275.78 205.31 275.78 199.27 311.54 181.97 313.41 169.63 116.08 267.34 150.96 289.15 342.92 211.5 318.96 210.87"/>
            </g>
            <g>
              <polygon class="cls-20" points="132.92 0 35.4 138.87 69.18 162.59 163.21 28.71 132.92 0"/>
              <g class="cls-26">
                <g>
                  <g>
                    <path class="cls-15" d="m65.93,137.72s-2.39.35-4.1,3.44c-.89,1.61-.78,3.68,0,5.35.67,1.44,1.98,2.64,3.55,2.91.8.14,1.63.03,2.4-.2,1.41-.42,2.71-1.26,3.6-2.44.89-1.18,1.35-2.69,1.19-4.15-.18-1.67-1.18-3.22-2.62-4.08-1.44-.86-4.01-.84-4.01-.84Z"/>
                    <g>
                      <polygon class="cls-19" points="54.39 129.49 53.74 127.05 52.96 126.94 47.1 135.16 46.8 136.51 48.86 136.17 50.3 135.42 52.67 131.94 54.39 129.49"/>
                      <polygon class="cls-19" points="46.84 137.1 46.57 137.33 47.08 138.41 48.43 139.84 49.7 141.41 51.92 142.1 54.68 143.1 57.13 144.35 58.58 145.72 59.04 145.34 58.62 143.65 58.57 142.45 58.16 142.07 53.61 140.52 50.56 138.74 46.84 137.1"/>
                      <polygon class="cls-19" points="56.08 126.58 54.65 126.16 54.29 126.57 59.96 132.39 61.99 135.22 63.2 136.09 64.67 135.8 66.57 135.71 66.78 135.15 63.19 132.52 61.04 130.09 59.57 128.01 56.08 126.58"/>
                    </g>
                    <path class="cls-19" d="m66.71,141.02s-.75,1.04-.82,1.14c-.3-.08-.91-.23-.91-.23l-.52.16.02.55s.46.48.68.72c-.25.44-.67,1.38-.67,1.38l.67.62s.8-.4,1.21-.57c.11.14.8,1.25.8,1.25l.68.05.15-.43-.19-1.38,1.12-.26.39-.48-.19-.39-1.01-.41-.49-.13-.22-1.52-.3-.28-.4.21Z"/>
                    <path class="cls-19" d="m66.26,137.25l2.92.42,3.16,2.16,1.31,2.63-1.34,4.8-5.15,3.42-4.33-1.89-1.99-2.43-.09-3.67.88-2.36,1.61-1.8,3.02-1.3Zm4.06,2.63l-3.01-1.57-3.53,1.03-1.81,2.76.19,3.73,2.71,2.74,2.86.13,3.33-2.67.9-3.28-1.63-2.88Z"/>
                  </g>
                  <g>
                    <g>
                      <g>
                        <g>
                          <polygon class="cls-15" points="63.22 113.43 57.21 121.69 65.49 120.29 63.22 113.43"/>
                          <path class="cls-19" d="m63.46,112.93l1.22,2.08.91,3.53.43,1.39-.97,1.11-1.58.43-3.21.63-3.34.28-.44-.72,1.05-1.75,1.96-2.57,3.43-4.52.53.12Zm-.37.79c-.97,1.34-2.73,3.99-2.73,3.99l-1.64,1.95-1.02,1.62,3.15-.25,4.08-1.2-.76-2.56s-1-3.35-1.07-3.55Z"/>
                        </g>
                        <g>
                          <polygon class="cls-15" points="75.8 128.81 78.67 136.39 85.34 127.82 84.41 126.95 75.8 128.81"/>
                          <path class="cls-19" d="m85.78,127.82l-.67,1.22-4.12,5.35-1.03,1.32-1.07,1.39-.8-.61-1.01-2.01-1.75-4.98.36-1.2,3.86-1.13,2.88-.46,1.49-.17,2.03.37-.17.93Zm-1.05-.25l-.92-.12-2.68.35-4.4,1.29,1.5,5.56.54,1.16,2.19-2.82,1.53-2.41,2.24-3.01Z"/>
                        </g>
                      </g>
                      <g>
                        <g>
                          <polygon class="cls-15" points="84.83 82.87 78.82 91.13 87.11 89.72 84.83 82.87"/>
                          <path class="cls-19" d="m85.08,82.37l1.22,2.08.91,3.53.43,1.39-.97,1.11-1.58.43-3.21.63-3.34.28-.44-.72,1.05-1.75,1.96-2.57,3.43-4.52.53.12Zm-.37.79c-.97,1.34-2.73,3.99-2.73,3.99l-1.64,1.95-1.02,1.62,3.15-.25,4.08-1.2-.76-2.56s-1-3.35-1.07-3.55Z"/>
                        </g>
                        <g>
                          <polygon class="cls-15" points="97.41 98.25 100.29 105.82 106.96 97.26 106.03 96.39 97.41 98.25"/>
                          <path class="cls-19" d="m107.39,97.26l-.67,1.22-4.12,5.35-1.03,1.32-1.07,1.39-.8-.61-1.01-2.01-1.75-4.98.36-1.2,3.86-1.13,2.88-.46,1.49-.17,2.03.37-.17.93Zm-1.05-.25l-.92-.12-2.68.35-4.4,1.29,1.5,5.56.54,1.16,2.19-2.82,1.53-2.41,2.24-3.01Z"/>
                        </g>
                      </g>
                    </g>
                    <g>
                      <polygon class="cls-15" points="84.45 103.48 83.19 105.13 81.95 107.01 81.06 104.65 79.86 102.94 79.4 102.68 78.92 103.45 80.47 107.72 78.19 107.44 75.84 107.68 75.29 108.31 75.81 108.92 80.3 109.58 78.16 113.6 78.77 114.77 80.3 114.23 81.84 111.09 82.26 112.58 83.21 114.38 84.53 114.96 85.19 113.63 83.41 110.01 87.28 110.48 88.43 109.59 87.6 108.44 85.78 108 83.53 107.92 85.45 104.09 85.21 103.36 84.45 103.48"/>
                      <path class="cls-19" d="m92.49,105.13l-.69,1.13-.96-.5-2.65-4.16-5.72-1.99-.11-1.03,4.48-1.11,3.24-.23,2.43,7.9Z"/>
                      <polygon class="cls-19" points="81.3 118.03 76.73 116.76 73.92 113.01 73.14 112.53 72.55 113.39 73.54 119.73 73.93 121.13 78.07 120.22 81.69 119.85 82.31 118.76 81.3 118.03"/>
                      <path class="cls-19" d="m78.62,100.53l.32-.98s-.99-.33-1.18-.3c-1.51.31-6.69,1.53-6.69,1.53l.09,2.71.15,3.89,1.44.4.81-1.99,1.22-2.36,1.85-1.48,1.97-1.42Z"/>
                      <polygon class="cls-19" points="91.86 109.56 91.71 112.1 90.5 114.26 86.16 117.42 85.87 118.13 86.55 118.62 90.37 117.67 93.77 116.8 93.9 114.17 93.09 109.12 91.86 109.56"/>
                    </g>
                    <g>
                      <path class="cls-15" d="m108.45,77.59s-2.39.35-4.1,3.44c-.89,1.61-.78,3.68,0,5.35.67,1.44,1.98,2.64,3.55,2.91.8.14,1.63.03,2.4-.2,1.41-.42,2.71-1.26,3.6-2.44.89-1.18,1.35-2.69,1.19-4.15-.18-1.67-1.18-3.22-2.62-4.08-1.44-.86-4.01-.84-4.01-.84Z"/>
                      <g>
                        <polygon class="cls-19" points="96.92 69.36 96.27 66.93 95.48 66.81 89.62 75.04 89.32 76.38 91.39 76.05 92.82 75.29 95.19 71.81 96.92 69.36"/>
                        <polygon class="cls-19" points="89.36 76.98 89.09 77.2 89.61 78.29 90.95 79.71 92.22 81.28 94.44 81.97 97.2 82.98 99.65 84.23 101.1 85.59 101.56 85.21 101.15 83.52 101.09 82.33 100.68 81.94 96.14 80.39 93.09 78.61 89.36 76.98"/>
                        <polygon class="cls-19" points="98.6 66.46 97.17 66.03 96.81 66.44 102.48 72.26 104.51 75.09 105.72 75.96 107.19 75.68 109.09 75.59 109.3 75.03 105.71 72.39 103.56 69.96 102.09 67.89 98.6 66.46"/>
                      </g>
                      <path class="cls-19" d="m109.24,80.89s-.75,1.04-.82,1.14c-.3-.08-.91-.23-.91-.23l-.52.16.02.55s.46.48.68.72c-.25.44-.67,1.38-.67,1.38l.67.62s.8-.4,1.21-.57c.11.14.8,1.25.8,1.25l.68.05.15-.43-.19-1.38,1.12-.26.39-.48-.19-.39-1.01-.41-.49-.13-.22-1.52-.3-.28-.4.21Z"/>
                      <path class="cls-19" d="m108.78,77.12l2.92.42,3.16,2.16,1.31,2.63-1.34,4.8-5.15,3.42-4.33-1.89-1.99-2.43-.09-3.67.88-2.36,1.61-1.8,3.02-1.3Zm4.06,2.63l-3.01-1.57-3.53,1.03-1.81,2.76.19,3.73,2.71,2.74,2.86.13,3.33-2.67.9-3.28-1.63-2.88Z"/>
                    </g>
                  </g>
                  <g>
                    <g>
                      <g>
                        <g>
                          <polygon class="cls-15" points="105.74 53.31 99.73 61.57 108.02 60.16 105.74 53.31"/>
                          <path class="cls-19" d="m105.99,52.81l1.22,2.08.91,3.53.43,1.39-.97,1.11-1.58.43-3.21.63-3.34.28-.44-.72,1.05-1.75,1.96-2.57,3.43-4.52.53.12Zm-.37.79c-.97,1.34-2.73,3.99-2.73,3.99l-1.64,1.95-1.02,1.62,3.15-.25,4.08-1.2-.76-2.56s-1-3.35-1.07-3.55Z"/>
                        </g>
                        <g>
                          <polygon class="cls-15" points="118.32 68.68 121.2 76.26 127.87 67.69 126.93 66.82 118.32 68.68"/>
                          <path class="cls-19" d="m128.3,67.7l-.67,1.22-4.12,5.35-1.03,1.32-1.07,1.39-.8-.61-1.01-2.01-1.75-4.98.36-1.2,3.86-1.13,2.88-.46,1.49-.17,2.03.37-.17.93Zm-1.05-.25l-.92-.12-2.68.35-4.4,1.29,1.5,5.56.54,1.16,2.19-2.82,1.53-2.41,2.24-3.01Z"/>
                        </g>
                      </g>
                      <g>
                        <g>
                          <polygon class="cls-15" points="127.35 22.75 121.34 31 129.63 29.6 127.35 22.75"/>
                          <path class="cls-19" d="m127.6,22.24l1.22,2.08.91,3.53.43,1.39-.97,1.11-1.58.43-3.21.63-3.34.28-.44-.72,1.05-1.75,1.96-2.57,3.43-4.52.53.12Zm-.37.79c-.97,1.34-2.73,3.99-2.73,3.99l-1.64,1.95-1.02,1.62,3.15-.25,4.08-1.2-.76-2.56s-1-3.35-1.07-3.55Z"/>
                        </g>
                        <g>
                          <polygon class="cls-15" points="139.93 38.12 142.81 45.7 149.48 37.13 148.55 36.26 139.93 38.12"/>
                          <path class="cls-19" d="m149.92,37.13l-.67,1.22-4.12,5.35-1.03,1.32-1.07,1.39-.8-.61-1.01-2.01-1.75-4.98.36-1.2,3.86-1.13,2.88-.46,1.49-.17,2.03.37-.17.93Zm-1.05-.25l-.92-.12-2.68.35-4.4,1.29,1.5,5.56.54,1.16,2.19-2.82,1.53-2.41,2.24-3.01Z"/>
                        </g>
                      </g>
                    </g>
                    <g>
                      <polygon class="cls-15" points="126.97 43.36 125.71 45.01 124.47 46.88 123.58 44.53 122.38 42.82 121.92 42.55 121.44 43.32 122.99 47.59 120.71 47.31 118.37 47.55 117.81 48.19 118.33 48.8 122.82 49.46 120.68 53.47 121.3 54.64 122.82 54.1 124.36 50.96 124.78 52.45 125.73 54.25 127.05 54.84 127.71 53.5 125.94 49.88 129.8 50.35 130.95 49.47 130.12 48.31 128.3 47.87 126.05 47.79 127.97 43.96 127.73 43.23 126.97 43.36"/>
                      <path class="cls-19" d="m135.01,45.01l-.69,1.13-.96-.5-2.65-4.16-5.72-1.99-.11-1.03,4.48-1.11,3.24-.23,2.43,7.9Z"/>
                      <polygon class="cls-19" points="123.83 57.91 119.26 56.64 116.45 52.89 115.66 52.4 115.07 53.26 116.06 59.6 116.45 61 120.59 60.09 124.21 59.72 124.83 58.63 123.83 57.91"/>
                      <path class="cls-19" d="m121.15,40.4l.32-.98s-.99-.33-1.18-.3c-1.51.31-6.69,1.53-6.69,1.53l.09,2.71.15,3.89,1.44.4.81-1.99,1.22-2.36,1.85-1.48,1.97-1.42Z"/>
                      <polygon class="cls-19" points="134.38 49.43 134.23 51.98 133.02 54.13 128.68 57.3 128.4 58.01 129.08 58.49 132.89 57.55 136.29 56.67 136.42 54.04 135.61 49 134.38 49.43"/>
                    </g>
                    <g>
                      <path class="cls-15" d="m150.97,17.46s-2.39.35-4.1,3.44c-.89,1.61-.78,3.68,0,5.35.67,1.44,1.98,2.64,3.55,2.91.8.14,1.63.03,2.4-.2,1.41-.42,2.71-1.26,3.6-2.44.89-1.18,1.35-2.69,1.19-4.15-.18-1.67-1.18-3.22-2.62-4.08-1.44-.86-4.01-.84-4.01-.84Z"/>
                      <g>
                        <polygon class="cls-19" points="139.44 9.23 138.79 6.8 138.01 6.69 132.14 14.91 131.85 16.26 133.91 15.92 135.34 15.17 137.71 11.69 139.44 9.23"/>
                        <polygon class="cls-19" points="131.89 16.85 131.61 17.07 132.13 18.16 133.47 19.59 134.74 21.15 136.97 21.85 139.72 22.85 142.17 24.1 143.63 25.46 144.09 25.08 143.67 23.39 143.61 22.2 143.21 21.82 138.66 20.26 135.61 18.48 131.89 16.85"/>
                      </g>
                      <path class="cls-19" d="m151.76,20.77s-.75,1.04-.82,1.14c-.3-.08-.91-.23-.91-.23l-.52.16.02.55s.46.48.68.72c-.25.44-.67,1.38-.67,1.38l.67.62s.8-.4,1.21-.57c.11.14.8,1.25.8,1.25l.68.05.15-.43-.19-1.38,1.12-.26.39-.48-.19-.39-1.01-.41-.49-.13-.22-1.52-.3-.28-.4.21Z"/>
                      <path class="cls-19" d="m151.3,17l2.92.42,3.16,2.16,1.31,2.63-1.34,4.8-5.15,3.42-4.33-1.89-1.99-2.43-.09-3.67.88-2.36,1.61-1.8,3.02-1.3Zm4.06,2.63l-3.01-1.57-3.53,1.03-1.81,2.76.19,3.73,2.71,2.74,2.86.13,3.33-2.67.9-3.28-1.63-2.88Z"/>
                    </g>
                  </g>
                </g>
              </g>
              <polygon class="cls-4" points="132.92 0 35.4 138.87 69.18 162.59 163.21 28.71 132.92 0"/>
              <polygon class="cls-23" points="132.92 0 35.4 138.87 69.18 162.59 163.21 28.71 132.92 0"/>
            </g>
            <g>
              <polygon class="cls-17" points="190.97 36.28 67.64 235.94 104.17 258.5 222.81 66.44 190.97 36.28"/>
              <g>
                <g>
                  <g>
                    <polygon class="cls-15" points="100.62 217.12 95.96 226.35 96.57 227.32 97.9 227.62 100.44 224.54 103.62 218.92 102.52 218.05 100.62 217.12"/>
                    <polygon class="cls-15" points="104.79 220.18 103.04 223.7 100.47 228.14 103.04 228.68 105.5 225.64 107.07 222.5 104.79 220.18"/>
                  </g>
                  <path class="cls-19" d="m101.69,216.49l3.26,3.16,2.92,2.82-1.17,2.95-3.01,4.23-.65.13-6.6-1.85-1.29-.75.09-1.04,3.42-6.07,2.09-3.32.94-.26Zm.05,1.28c-1.59,2.93-3.56,5.71-5.41,8.49,2.19.77,6.62,2.14,6.62,2.14l2.53-3.44.98-1.99-.74-1.57s-2.67-2.26-3.99-3.62Z"/>
                  <polygon class="cls-15" points="94.02 234.38 100.33 248.17 109.15 233.45 94.02 234.38"/>
                  <path class="cls-19" d="m110.07,233.03l-.57,1.55-3.41,4.75-5.63,9.73-.96-.18-2.57-7.35-2.92-6.42-5.82,2.02-1.21-.78.34-.83,6.1-1.43-1.34-3.07-.87-2.37.59-.77,1.37,1.04,1.17,4.69,7.78.03,7.38-.92.57.31Zm-6.22,7.87l4.48-6.84-6.37.51-7.02.2,2.99,5.83,2.16,6.73,3.75-6.43Z"/>
                  <polygon class="cls-19" points="87.93 230.07 87.7 231.07 83.56 232.19 82.98 233.21 83.7 233.71 87.06 232.7 89.69 231.95 88.93 230.14 88.48 226.78 87.37 226.31 86.96 227.2 87.93 230.07"/>
                  <polygon class="cls-19" points="82.44 226.71 81.16 227.31 81.65 228.3 85.14 230.07 85.87 229.77 85.71 228.9 82.44 226.71"/>
                  <path class="cls-19" d="m120.96,200.14l3.5,6.02-.74,1.79-2.73,3.38-1.5,1.11-2.1-.16-2.31-.29-2.84-.33-.77.94-.71,1.56-1.36,3.32-1.13.53-3.86-4.51-.9-1.83,4.35-6.01,4.01-7.31,2.44-.24,5.7.33.95,1.7Zm-5.03-.77s-2.79.29-2.8.29c-.08.09-8.38,12.65-8.38,12.65l.96.9,2.58,3.65,1.52-3.28.71-1.61,1.12-1.69,2.49.47,4.61.54,1.75-1.32,2.65-3.47s-1.17-2.07-1.53-2.66c-.71-1.19-2.28-3.95-2.28-3.95l-3.41-.51Z"/>
                  <polygon class="cls-15" points="114.15 201.47 113.11 201.92 112.56 204.54 111.93 207.05 112.9 208.16 118.16 209.61 120.42 207.13 120.81 204.81 118.53 201.47 114.15 201.47"/>
                  <g>
                    <polygon class="cls-15" points="129.17 170.9 124.51 180.13 125.12 181.11 126.45 181.4 128.99 178.32 132.17 172.7 131.07 171.83 129.17 170.9"/>
                    <polygon class="cls-15" points="133.34 173.97 131.59 177.48 129.02 181.92 131.59 182.46 134.05 179.43 135.62 176.29 133.34 173.97"/>
                  </g>
                  <path class="cls-19" d="m130.24,170.27l3.26,3.16,2.92,2.82-1.17,2.95-3.01,4.23-.65.13-6.6-1.85-1.29-.75.09-1.04,3.42-6.07,2.09-3.32.94-.26Zm.05,1.28c-1.59,2.93-3.56,5.71-5.41,8.49,2.19.77,6.62,2.14,6.62,2.14l2.53-3.44.98-1.99-.74-1.57s-2.67-2.26-3.99-3.62Z"/>
                  <polygon class="cls-15" points="122.57 188.16 128.88 201.95 137.7 187.23 122.57 188.16"/>
                  <path class="cls-19" d="m138.62,186.81l-.57,1.55-3.41,4.75-5.63,9.73-.96-.18-2.57-7.35-2.92-6.42-5.82,2.02-1.21-.78.34-.83,6.1-1.43-1.34-3.07-.87-2.37.59-.77,1.37,1.04,1.17,4.69,7.78.03,7.38-.92.57.31Zm-6.22,7.87l4.48-6.84-6.37.51-7.02.2,2.99,5.83,2.16,6.73,3.75-6.43Z"/>
                  <polygon class="cls-19" points="116.48 183.85 116.25 184.85 112.11 185.97 111.53 186.99 112.25 187.5 115.61 186.48 118.24 185.73 117.48 183.92 117.03 180.56 115.92 180.09 115.51 180.98 116.48 183.85"/>
                  <polygon class="cls-19" points="110.99 180.49 109.7 181.09 110.2 182.09 113.69 183.85 114.42 183.56 114.26 182.68 110.99 180.49"/>
                  <path class="cls-19" d="m136.57,171.63l-2.85-4.95-.88-2.29,4.75-6.86,3.43-6.58h2.04s5.76,1.42,5.76,1.42l.03,1.25-2.36,2.7-1.08,1.33-.49,1.11,1.57,2.39,1.29,1.94,1.09,1.81-.32,1.84-1.8,3.95-1.27,1.46-6.95-.43-1.95-.09Zm.99-1.24s3.17.17,4.56.27c.68.05,3.06.17,3.06.17l1.92-3.92.39-2.15-2.55-3.88-1.53-2.02,1.01-1.76,1.13-1.36,2.25-2.83-4.42-.68-1.23-.45s-7.51,13.05-7.56,13.15c0,0,.99,2.63.99,2.63l1.98,2.82Z"/>
                  <polygon class="cls-15" points="136.66 165.03 136.59 163.91 138.69 162.23 140.66 160.55 142.08 160.92 145.74 164.98 144.53 168.11 142.62 169.49 138.62 168.95 136.66 165.03"/>
                  <polygon class="cls-19" points="105.17 193.65 96.79 206.74 95.82 206.99 95.62 206 103.51 192.94 104.77 192.35 105.17 193.65"/>
                  <polygon class="cls-19" points="100.93 209.4 105.23 202.31 109.1 195.62 108.6 194.54 107.85 194.93 103.73 201.58 99.53 208.3 99.41 209.38 100.93 209.4"/>
                  <polygon class="cls-19" points="125.65 160.5 133.6 147.15 133.39 146.17 132.41 146.44 124.27 159.33 124.3 160.73 125.65 160.5"/>
                  <polygon class="cls-19" points="137.83 149.66 133.41 156.68 129.16 163.13 127.98 163.17 127.99 162.33 132.09 155.66 136.22 148.9 137.13 148.31 137.83 149.66"/>
                </g>
                <g>
                  <g>
                    <polygon class="cls-15" points="159.66 121.53 155 130.76 155.61 131.74 156.94 132.04 159.48 128.96 162.66 123.33 161.56 122.46 159.66 121.53"/>
                    <polygon class="cls-15" points="163.83 124.6 162.08 128.11 159.51 132.56 162.08 133.1 164.54 130.06 166.11 126.92 163.83 124.6"/>
                  </g>
                  <path class="cls-19" d="m160.74,120.91l3.26,3.16,2.92,2.82-1.17,2.95-3.01,4.23-.65.13-6.6-1.85-1.29-.75.09-1.04,3.42-6.07,2.09-3.32.94-.26Zm.05,1.28c-1.59,2.93-3.56,5.71-5.41,8.49,2.19.77,6.62,2.14,6.62,2.14l2.53-3.44.98-1.99-.74-1.57s-2.67-2.26-3.99-3.62Z"/>
                  <polygon class="cls-15" points="153.07 138.8 159.37 152.59 168.2 137.86 153.07 138.8"/>
                  <path class="cls-19" d="m169.11,137.44l-.57,1.55-3.41,4.75-5.63,9.73-.96-.18-2.57-7.35-2.92-6.42-5.82,2.02-1.21-.78.34-.83,6.1-1.43-1.34-3.07-.87-2.37.59-.77,1.37,1.04,1.17,4.69,7.78.03,7.38-.92.57.31Zm-6.22,7.87l4.48-6.84-6.37.51-7.02.2,2.99,5.83,2.16,6.73,3.75-6.43Z"/>
                  <polygon class="cls-19" points="146.98 134.49 146.74 135.49 142.61 136.61 142.02 137.63 142.74 138.13 146.11 137.12 148.73 136.37 147.97 134.56 147.53 131.19 146.41 130.73 146 131.62 146.98 134.49"/>
                  <polygon class="cls-19" points="141.48 131.13 140.2 131.73 140.69 132.72 144.18 134.49 144.91 134.19 144.76 133.32 141.48 131.13"/>
                  <path class="cls-19" d="m180,104.55l3.5,6.02-.74,1.79-2.73,3.38-1.5,1.11-2.1-.16-2.31-.29-2.84-.33-.77.94-.71,1.56-1.36,3.32-1.13.53-3.86-4.51-.9-1.83,4.35-6.01,4.01-7.31,2.44-.24,5.7.33.95,1.7Zm-5.03-.77s-2.79.29-2.8.29c-.08.09-8.38,12.65-8.38,12.65l.96.9,2.58,3.65,1.52-3.28.71-1.61,1.12-1.69,2.49.47,4.61.54,1.75-1.32,2.65-3.47s-1.17-2.07-1.53-2.66c-.71-1.19-2.28-3.95-2.28-3.95l-3.41-.51Z"/>
                  <polygon class="cls-15" points="173.19 105.89 172.16 106.33 171.6 108.96 170.97 111.47 171.94 112.57 177.21 114.03 179.46 111.55 179.85 109.23 177.57 105.89 173.19 105.89"/>
                  <g>
                    <polygon class="cls-15" points="188.21 75.32 183.55 84.54 184.16 85.52 185.49 85.82 188.03 82.74 191.21 77.12 190.11 76.24 188.21 75.32"/>
                    <polygon class="cls-15" points="192.38 78.38 190.63 81.89 188.06 86.34 190.63 86.88 193.09 83.84 194.66 80.7 192.38 78.38"/>
                  </g>
                  <path class="cls-19" d="m189.29,74.69l3.26,3.16,2.92,2.82-1.17,2.95-3.01,4.23-.65.13-6.6-1.85-1.29-.75.09-1.04,3.42-6.07,2.09-3.32.94-.26Zm.05,1.28c-1.59,2.93-3.56,5.71-5.41,8.49,2.19.77,6.62,2.14,6.62,2.14l2.53-3.44.98-1.99-.74-1.57s-2.67-2.26-3.99-3.62Z"/>
                  <polygon class="cls-15" points="181.61 92.58 187.92 106.37 196.75 91.64 181.61 92.58"/>
                  <path class="cls-19" d="m197.66,91.23l-.57,1.55-3.41,4.75-5.63,9.73-.96-.18-2.57-7.35-2.92-6.42-5.82,2.02-1.21-.78.34-.83,6.1-1.43-1.34-3.07-.87-2.37.59-.77,1.37,1.04,1.17,4.69,7.78.03,7.38-.92.57.31Zm-6.22,7.87l4.48-6.84-6.37.51-7.02.2,2.99,5.83,2.16,6.73,3.75-6.43Z"/>
                  <polygon class="cls-19" points="175.52 88.27 175.29 89.27 171.16 90.39 170.57 91.41 171.29 91.91 174.66 90.9 177.28 90.15 176.52 88.34 176.08 84.98 174.96 84.51 174.55 85.4 175.52 88.27"/>
                  <polygon class="cls-19" points="170.03 84.91 168.75 85.51 169.24 86.5 172.73 88.27 173.46 87.97 173.31 87.1 170.03 84.91"/>
                  <path class="cls-19" d="m195.61,76.05l-2.85-4.95-.88-2.29,4.75-6.86,3.43-6.58h2.04s5.76,1.42,5.76,1.42l.03,1.25-2.36,2.7-1.08,1.33-.49,1.11,1.57,2.39,1.29,1.94,1.09,1.81-.32,1.84-1.8,3.95-1.27,1.46-6.95-.43-1.95-.09Zm.99-1.24s3.17.17,4.56.27c.68.05,3.06.17,3.06.17l1.92-3.92.39-2.15-2.55-3.88-1.53-2.02,1.01-1.76,1.13-1.36,2.25-2.83-4.42-.68-1.23-.45s-7.51,13.05-7.56,13.15c0,0,.99,2.63.99,2.63l1.98,2.82Z"/>
                  <polygon class="cls-15" points="195.7 69.45 195.63 68.32 197.73 66.65 199.7 64.97 201.12 65.34 204.78 69.39 203.57 72.52 201.67 73.91 197.66 73.37 195.7 69.45"/>
                  <polygon class="cls-19" points="164.21 98.07 155.83 111.16 154.86 111.41 154.66 110.42 162.55 97.36 163.81 96.77 164.21 98.07"/>
                  <polygon class="cls-19" points="159.97 113.82 164.27 106.72 168.14 100.04 167.65 98.96 166.9 99.35 162.77 106 158.57 112.72 158.45 113.8 159.97 113.82"/>
                  <polygon class="cls-19" points="184.69 64.92 192.64 51.57 192.43 50.59 191.46 50.85 183.31 63.75 183.34 65.14 184.69 64.92"/>
                  <polygon class="cls-19" points="196.88 54.08 192.45 61.1 188.21 67.55 187.02 67.59 187.03 66.75 191.14 60.08 195.27 53.32 196.17 52.73 196.88 54.08"/>
                </g>
              </g>
              <polygon class="cls-10" points="190.97 36.28 67.64 235.94 104.17 258.5 222.81 66.44 190.97 36.28"/>
              <polygon class="cls-8" points="190.97 36.28 67.64 235.94 104.17 258.5 222.81 66.44 190.97 36.28"/>
            </g>
            <g>
              <polygon class="cls-21" points="275.01 288.04 279.62 109.24 239.3 71.04 233.23 306.69 275.01 288.04"/>
              <g class="cls-27">
                <g>
                  <g>
                    <g>
                      <polygon class="cls-19" points="260.4 292.63 267.95 293.56 269.05 292.31 268.04 290.69 261.12 290.97 238.39 290.22 237.88 290.58 238.88 292.14 260.4 292.63"/>
                      <polygon class="cls-19" points="252.62 297.38 238.24 296.11 237.03 297.62 238.59 299.21 253.3 299.01 267.73 299.09 268.95 298.6 267.69 297.77 252.62 297.38"/>
                    </g>
                    <g>
                      <path class="cls-15" d="m260.7,259.25l-13.76-.5s-2.55,4.25-2.65,9.38c-1.3.2-2.32.52-2.76,1.04,0,0-1.75,4.6-.77,9.3l13.27-.2s-1.28-6.17.88-9.84l3.29-.21s.96-5.46,2.5-8.96Z"/>
                      <polygon class="cls-15" points="253.24 281.93 238.86 280.65 237.64 282.17 239.2 283.75 253.91 283.56 268.34 283.63 269.57 283.14 268.3 282.31 253.24 281.93"/>
                      <path class="cls-19" d="m261.27,258.97l-1.79,4.93-.84,4.64-3.26.97-1.03,3.23-.17,7.2-6.97-.84-7.1-.08.58-11.06,2.27-.47,2.19-8.9,16.13.37Zm-4.24,8.82l.95-5.29.98-2.11-5.09.57-7.34-.84-1.94,8.48-2.38.65-.33,1.56-.06,6.37,5.41.89,5.53.16.28-6.35,1.23-3.39,2.74-.69Z"/>
                    </g>
                  </g>
                  <g>
                    <g>
                      <path class="cls-19" d="m251.75,218.85s-1.88-.76-2.54-1.16c-1.46-.88-3.94-3.17-3.94-3.17l-3.09-3.65-.48-4.71.95-1.14,3,.63s2.91,2.11,4.29,3.88c1.02,1.3,3.24,5.3,3.24,5.3l.15,2.82-1.59,1.19Zm-2.99-3.03l2.92.97-.93-2.43-.31-2.13-4.05-3.64-3.26-1.63.31,2.39,2.76,3.62,2.56,2.85Z"/>
                      <path class="cls-19" d="m250.7,231.09l-4.01,4.28-4.25,1.32-2.12-1.34.64-3.42,2.73-3.42,7.34-3.72,2.06,2.46-2.4,3.83Zm-5.18,2.51l3.5-3.47,1.55-3.08-4.47,1.99-2.54,2.34-1.37,2.52,3.32-.31Z"/>
                      <path class="cls-19" d="m264.26,226.72l4.63,3.97,1.91,5.8-2.55,2.97-4.43-3.1-5.44-5.33-.1-4.29,1.88-1.21,4.1,1.2Zm-1.03,1.25l-3.38-.47.04,2.04,3.62,4.63,4.31,2.8,1.52-1.34-3.53-5.3-2.6-2.35Z"/>
                      <path class="cls-19" d="m269.33,206.5l2.71,2.22-1.84,4.16-1.5,1.56-6.81,4.4-1.43.04-1.91-1.74,1.19-4.21,6.08-4.91,3.51-1.52Zm.04,3.79l-.73-2.01-5.26,3.18-2.46,4.06.31,1.5,2.96-1.24,2.47-1.83,2.7-3.66Z"/>
                      <path class="cls-15" d="m259.41,238.44l-6.52.21-4.06-.97.04-2.22,3.23-3.34,2.74-2.15,1.7,1.58,1.38,2.15,2.38,2.82-.9,1.93Zm-1.1-1.46s0,0,0,0c0,.02.01.03.01.05,0-.01,0-.03-.01-.05Z"/>
                      <polygon class="cls-15" points="269.01 217.13 266.47 219.79 263.99 222.68 265.92 225.21 268.71 227.91 271.42 228.66 272.48 225.48 272.55 220.73 271.68 216.22 269.01 217.13"/>
                      <path class="cls-15" d="m251.34,205.62c-.92.28-.77,1.36-.12,1.77,1.14.95,2.07,2.02,2.93,3.22.49.7,1.01,2.13,1.89,2.39.96.29,1.48-.8,1.94-1.43.95-1.29,1.96-2.18,3.25-3.13,2.31-1.7-.1-3.09-2.01-3.59-2.67-.7-5.31-.04-7.87.76Z"/>
                      <polygon class="cls-15" points="245.82 223.58 247.49 221.07 245.75 218.87 241.41 215.62 240.7 216.45 240.02 219 239.73 224.29 240.76 226.79 242.99 226.21 245.82 223.58"/>
                    </g>
                    <g>
                      <g>
                        <polygon class="cls-19" points="262.19 247.65 269.74 248.59 270.84 247.34 269.83 245.72 262.92 246 240.18 245.25 239.67 245.61 240.67 247.17 262.19 247.65"/>
                        <polygon class="cls-19" points="254.41 252.41 240.04 251.13 238.82 252.65 240.38 254.24 255.09 254.04 269.52 254.12 270.74 253.62 269.48 252.79 254.41 252.41"/>
                      </g>
                      <g>
                        <polygon class="cls-19" points="264.44 191.21 271.99 192.14 273.09 190.9 272.08 189.27 265.16 189.56 242.43 188.81 241.92 189.16 242.92 190.72 264.44 191.21"/>
                        <polygon class="cls-19" points="256.66 195.97 242.28 194.69 241.07 196.21 242.63 197.79 257.34 197.6 271.77 197.67 272.99 197.18 271.73 196.35 256.66 195.97"/>
                      </g>
                    </g>
                    <g>
                      <path class="cls-15" d="m264.74,157.83l-13.76-.5s-2.55,4.25-2.65,9.38c-1.3.2-2.32.52-2.76,1.04,0,0-1.75,4.6-.77,9.3l13.27-.2s-1.28-6.17.88-9.84l3.29-.21s.96-5.46,2.5-8.96Z"/>
                      <polygon class="cls-15" points="257.28 180.51 242.9 179.23 241.69 180.75 243.24 182.33 257.96 182.14 272.39 182.21 273.61 181.72 272.34 180.89 257.28 180.51"/>
                      <path class="cls-19" d="m265.31,157.56l-1.79,4.93-.84,4.64-3.26.97-1.03,3.23-.17,7.2-6.97-.84-7.1-.08.58-11.06,2.27-.47,2.19-8.9,16.13.37Zm-4.24,8.82l.95-5.29.98-2.11-5.09.57-7.34-.84-1.94,8.48-2.38.65-.33,1.56-.06,6.37,5.41.89,5.53.16.28-6.35,1.23-3.39,2.74-.69Z"/>
                    </g>
                  </g>
                  <g>
                    <g>
                      <path class="cls-19" d="m255.79,117.44s-1.88-.76-2.54-1.16c-1.46-.88-3.94-3.17-3.94-3.17l-3.09-3.65-.48-4.71.95-1.14,3,.63s2.91,2.11,4.29,3.88c1.02,1.3,3.24,5.3,3.24,5.3l.15,2.82-1.59,1.19Zm-2.99-3.03l2.92.97-.93-2.43-.31-2.13-4.05-3.64-3.26-1.63.31,2.39,2.76,3.62,2.56,2.85Z"/>
                      <path class="cls-19" d="m254.74,129.68l-4.01,4.28-4.25,1.32-2.12-1.34.64-3.42,2.73-3.42,7.34-3.72,2.06,2.46-2.4,3.83Zm-5.18,2.51l3.5-3.47,1.55-3.08-4.47,1.99-2.54,2.34-1.37,2.52,3.32-.31Z"/>
                      <path class="cls-19" d="m268.3,125.3l4.63,3.97,1.91,5.8-2.55,2.97-4.43-3.1-5.44-5.33-.1-4.29,1.88-1.21,4.1,1.2Zm-1.03,1.25l-3.38-.47.04,2.04,3.62,4.63,4.31,2.8,1.52-1.34-3.53-5.3-2.6-2.35Z"/>
                      <path class="cls-19" d="m273.37,105.08l2.71,2.22-1.84,4.16-1.5,1.56-6.81,4.4-1.43.04-1.91-1.74,1.19-4.21,6.08-4.91,3.51-1.52Zm.04,3.79l-.73-2.01-5.26,3.18-2.46,4.06.31,1.5,2.96-1.24,2.47-1.83,2.7-3.66Z"/>
                      <path class="cls-15" d="m263.45,137.02l-6.52.21-4.06-.97.04-2.22,3.23-3.34,2.74-2.15,1.7,1.58,1.38,2.15,2.38,2.82-.9,1.93Zm-1.1-1.46h0s.01.03.01.05c0-.01,0-.03-.01-.05Z"/>
                      <polygon class="cls-15" points="273.05 115.72 270.52 118.37 268.03 121.26 269.96 123.8 272.75 126.49 275.46 127.24 276.52 124.06 276.59 119.31 275.72 114.8 273.05 115.72"/>
                      <path class="cls-15" d="m255.38,104.21c-.92.28-.77,1.36-.12,1.77,1.14.95,2.07,2.02,2.93,3.22.49.7,1.01,2.13,1.89,2.39.96.29,1.48-.8,1.94-1.43.95-1.29,1.96-2.18,3.25-3.13,2.31-1.7-.1-3.09-2.01-3.59-2.67-.7-5.31-.04-7.87.76Z"/>
                      <polygon class="cls-15" points="249.86 122.17 251.53 119.65 249.79 117.45 245.45 114.21 244.74 115.04 244.06 117.58 243.77 122.87 244.8 125.38 247.03 124.79 249.86 122.17"/>
                    </g>
                    <g>
                      <g>
                        <polygon class="cls-19" points="266.23 146.24 273.78 147.17 274.88 145.92 273.87 144.3 266.96 144.58 244.22 143.83 243.71 144.19 244.71 145.75 266.23 146.24"/>
                        <polygon class="cls-19" points="258.45 151 244.08 149.72 242.86 151.24 244.42 152.82 259.13 152.63 273.56 152.7 274.79 152.21 273.52 151.38 258.45 151"/>
                      </g>
                      <g>
                        <polygon class="cls-19" points="268.48 89.79 276.03 90.73 277.13 89.48 276.12 87.86 269.21 88.14 246.47 87.39 245.96 87.75 246.96 89.31 268.48 89.79"/>
                        <polygon class="cls-19" points="260.7 94.55 246.33 93.27 245.11 94.79 246.67 96.38 261.38 96.18 275.81 96.26 277.03 95.77 275.77 94.93 260.7 94.55"/>
                      </g>
                    </g>
                  </g>
                </g>
              </g>
              <polygon class="cls-3" points="275.01 288.04 279.62 109.24 239.3 71.04 233.23 306.69 275.01 288.04"/>
              <polygon class="cls-7" points="275.01 288.04 279.62 109.24 239.3 71.04 233.23 306.69 275.01 288.04"/>
            </g>
          </g>
          <polygon class="cls-24" points="27.87 12.49 0 53.8 15.58 92.03 57.35 40.43 27.87 12.49"/>
          <polygon class="cls-1" points="27.87 12.49 0 53.8 15.58 92.03 57.35 40.43 27.87 12.49"/>
        </g>
      </g>
    </g>
  </g>
</svg>